<?xml version="1.0" encoding="UTF-8" standalone="no"?>
<!-- Created with Inkscape (http://www.inkscape.org/) -->

<svg
   version="1.1"
   id="svg1"
   width="32"
   height="32"
   viewBox="0 0 32 32"
   sodipodi:docname="favicon.svg"
   inkscape:export-filename="favicon.svg"
   inkscape:export-xdpi="96"
   inkscape:export-ydpi="96"
   inkscape:version="1.4.2 (f4327f4, 2025-05-13)"
   xmlns:inkscape="http://www.inkscape.org/namespaces/inkscape"
   xmlns:sodipodi="http://sodipodi.sourceforge.net/DTD/sodipodi-0.dtd"
   xmlns="http://www.w3.org/2000/svg"
   xmlns:svg="http://www.w3.org/2000/svg">
  <defs
     id="defs1" />
  <sodipodi:namedview
     id="namedview1"
     pagecolor="#ffffff"
     bordercolor="#000000"
     borderopacity="0.25"
     inkscape:showpageshadow="2"
     inkscape:pageopacity="0.0"
     inkscape:pagecheckerboard="0"
     inkscape:deskcolor="#d1d1d1"
     showgrid="false"
     inkscape:zoom="25.46875"
     inkscape:cx="17.707975"
     inkscape:cy="15.803681"
     inkscape:window-width="1920"
     inkscape:window-height="1017"
     inkscape:window-x="-8"
     inkscape:window-y="-8"
     inkscape:window-maximized="1"
     inkscape:current-layer="g1" />
  <g
     inkscape:groupmode="layer"
     inkscape:label="Image"
     id="g1"
     style="display:inline">
    <rect
       style="display:inline;fill:#242835;fill-opacity:1;stroke-width:1.06206"
       id="rect1"
       width="32"
       height="32"
       x="0"
       y="0"
       ry="0" />
    <rect
       style="display:inline;fill:#ffffff;fill-opacity:1;stroke-width:0.84076"
       id="rect2"
       width="27.485001"
       height="20.221197"
       x="2.1595092"
       y="6.0466256"
       ry="4.7046428" />
    <path
       style="font-weight:bold;font-size:27.2659px;font-family:'Sakkal Majalla';-inkscape-font-specification:'Sakkal Majalla Bold';display:inline;fill:#00b8d8;stroke-width:0.401879"
       d="M 12.634867,22.415609 11.123601,18.07072 6.2749561,18.13369 4.7007208,22.41561 H 3.0383282 L 8.1514447,9.6328176 10.695409,9.1920318 15.455897,22.415609 Z M 10.708003,16.849113 8.768545,11.282617 6.7283359,16.849113 Z m 16.749864,-6.460662 q -0.352629,0 -0.68007,0.08815 -0.327441,0.08815 -0.667476,0.289659 -0.327441,0.201501 -0.705257,0.516349 -0.365223,0.302253 -0.818603,0.755633 -0.491161,0.491161 -1.032698,1.083074 -0.541537,0.591913 -1.146043,1.271982 0.806008,1.561642 1.549047,2.871405 0.743039,1.309764 1.448297,2.254306 0.717852,0.944541 1.435703,1.473484 0.71785,0.516349 1.473484,0.516349 h 0.151126 v 0.818602 q -0.428191,0.113345 -0.868977,0.163721 -0.440786,0.06297 -1.020105,0.06297 -0.629694,0 -1.158637,-0.138533 -0.51635,-0.125938 -0.982323,-0.428191 -0.45338,-0.302254 -0.881572,-0.780822 -0.428192,-0.491161 -0.881572,-1.183824 -0.440785,-0.705258 -0.944541,-1.637206 -0.491161,-0.931946 -1.083074,-2.128366 -0.100751,0.100751 -0.239283,0.264472 -0.138533,0.163721 -0.28966,0.340035 -0.151126,0.176315 -0.289659,0.327441 -0.125939,0.151127 -0.201502,0.239284 v 4.987177 H 16.99235 V 9.5194727 h 2.632122 v 6.0450643 q 0.377816,-0.440786 0.919353,-1.083074 0.541537,-0.654881 1.108262,-1.322358 0.566724,-0.667476 1.083074,-1.259388 0.528943,-0.604506 0.868978,-0.969729 0.45338,-0.478567 0.818602,-0.755633 0.377817,-0.2896597 0.730445,-0.4407863 0.365223,-0.1511266 0.755633,-0.1889082 0.390411,-0.050376 0.881572,-0.050376 0.214096,0 0.478568,0.025188 0.264472,0.025188 0.365222,0.062969 v 0.8060095 z"
       id="text2"
       aria-label="AK" />
  </g>
</svg>
