<?xml version="1.0" encoding="UTF-8" standalone="no"?>
<!-- Created with Inkscape (http://www.inkscape.org/) -->

<svg
   version="1.1"
   id="svg1"
   width="247.38814"
   height="113.48315"
   viewBox="0 0 247.38814 113.48315"
   sodipodi:docname="logo.en.png"
   inkscape:export-filename="logo.en.svg"
   inkscape:export-xdpi="96"
   inkscape:export-ydpi="96"
   xml:space="preserve"
   xmlns:inkscape="http://www.inkscape.org/namespaces/inkscape"
   xmlns:sodipodi="http://sodipodi.sourceforge.net/DTD/sodipodi-0.dtd"
   xmlns="http://www.w3.org/2000/svg"
   xmlns:svg="http://www.w3.org/2000/svg"><defs
     id="defs1" /><sodipodi:namedview
     id="namedview1"
     pagecolor="#ffffff"
     bordercolor="#000000"
     borderopacity="0.25"
     inkscape:showpageshadow="2"
     inkscape:pageopacity="0.0"
     inkscape:pagecheckerboard="0"
     inkscape:deskcolor="#d1d1d1"
     showguides="true" /><g
     inkscape:groupmode="layer"
     id="layer2"
     inkscape:label="Image 1"
     transform="translate(-0.25233513,-0.4494377)"><rect
       style="fill:#000000;fill-opacity:1;stroke-width:0.661877"
       id="rect5"
       width="165.39328"
       height="113.48315"
       x="82.247192"
       y="0.44943771" /><path
       style="fill:#ffa500;fill-opacity:1;stroke-width:0.205818"
       d="M 0.25233512,63.148694 V 51.926968 H 12.028545 23.804758 V 63.148694 74.370419 H 12.028545 0.25233512 Z m 23.49961388,0 V 51.979776 H 12.028545 0.30514292 V 63.148694 74.317608 H 12.028545 23.751949 Z M 4.3747678,73.959482 C 4.1545626,73.739274 4.1644319,73.548243 4.4230101,73.025783 4.6408303,72.58567 4.9006211,71.878956 4.8978831,71.733969 4.8970192,71.688282 4.7562157,71.570589 4.5849846,71.472567 4.2083188,71.256916 4.0148937,71.062907 3.7706041,70.655716 3.4418611,70.107772 3.4207313,69.90521 3.4216071,67.310107 c 8.651e-4,-2.553729 0.017474,-2.721874 0.326228,-3.301146 0.2957246,-0.554837 0.9146826,-1.007962 1.5634813,-1.14459 0.1539132,-0.03241 0.5179089,-0.05893 0.8088829,-0.05893 0.4797437,0 0.5263253,-0.0087 0.4998981,-0.09241 -0.016034,-0.05083 -0.081685,-0.33005 -0.1458984,-0.620495 -0.099711,-0.45097 -0.1169216,-0.690014 -0.1178786,-1.637052 -0.00103,-0.947361 0.01572,-1.185926 0.1144077,-1.637051 0.38331,-1.752089 1.0980597,-3.071163 2.3336426,-4.306746 1.2401963,-1.240195 2.6326543,-1.986922 4.3475263,-2.33143 0.865107,-0.173794 2.351678,-0.172868 3.180517,0.0019 2.292647,0.483655 4.164213,1.735277 5.422202,3.626129 1.64881,2.478291 1.851241,5.656696 0.532413,8.359511 -1.250502,2.562792 -3.836465,4.370331 -6.650363,4.648471 l -0.360417,0.03562 -0.03236,0.580889 c -0.05396,0.968582 -0.369008,1.555805 -1.076614,2.006691 -0.577197,0.367793 -0.543938,0.363712 -3.124497,0.383849 l -2.3323749,0.01819 -0.308032,0.371919 c -0.8536532,1.030692 -2.2223171,1.766875 -3.4863192,1.875236 -0.3715785,0.03183 -0.3828206,0.02912 -0.541283,-0.129289 z m 2.0271825,-1.408814 c 0.5454577,-0.307155 1.1742308,-0.902346 1.5461666,-1.463585 0.07074,-0.106748 0.1682181,-0.213681 0.2166282,-0.237639 0.048405,-0.02393 1.2167937,-0.05543 2.5964059,-0.06994 2.463399,-0.02587 2.51231,-0.02847 2.727145,-0.143395 0.273473,-0.146254 0.583703,-0.503275 0.652489,-0.750885 0.03112,-0.111988 0.05196,-1.172681 0.05144,-2.61745 -8.22e-4,-2.242347 -0.0083,-2.445581 -0.09774,-2.642455 -0.122044,-0.268675 -0.517195,-0.620334 -0.788339,-0.701571 -0.150549,-0.0451 -1.248244,-0.0621 -4.0105133,-0.0621 H 5.4923995 l -0.2823086,0.147479 c -0.3155293,0.164835 -0.5942933,0.490195 -0.6778892,0.7912 -0.073825,0.265825 -0.073825,4.774678 0,5.040509 0.1211731,0.436303 0.5265105,0.785248 1.1041799,0.950566 0.1743306,0.04991 0.2617211,0.112887 0.3374494,0.243291 0.098401,0.169443 0.099007,0.192211 0.016218,0.613585 -0.04729,0.240681 -0.1455097,0.613 -0.2182619,0.827384 -0.072753,0.214373 -0.1324466,0.394654 -0.1326501,0.40063 -0.00119,0.03713 0.4947318,-0.174608 0.7628177,-0.325582 z M 6.609532,69.005993 C 6.2922813,68.849487 6.2272927,68.440142 6.4796317,68.187812 l 0.1543625,-0.154363 h 2.5612032 2.5612056 l 0.156207,0.131432 c 0.295862,0.248953 0.232894,0.700759 -0.118104,0.847413 -0.282052,0.117845 -4.9448039,0.112183 -5.184974,-0.0065 z m 0.053082,-2.60855 C 6.3188968,66.258573 6.2213988,65.805634 6.4796328,65.547401 l 0.1543624,-0.154363 h 2.5612033 2.5612055 l 0.156207,0.131442 c 0.188936,0.158978 0.236768,0.363617 0.139439,0.596555 -0.135705,0.324791 -0.168797,0.328548 -2.8602434,0.324824 -1.329716,-0.0022 -2.4678528,-0.0236 -2.5291929,-0.04839 z m 9.417642,0.970065 c 1.037306,-0.714422 1.919444,-2.308262 2.335629,-4.219993 0.112181,-0.515302 0.266485,-1.668014 0.266485,-1.990751 v -0.199607 h -1.716264 -1.716265 v 3.405908 3.405907 l 0.276038,-0.104908 c 0.15182,-0.0577 0.401291,-0.19115 0.554376,-0.296578 z m 2.771346,-0.798911 c 1.020309,-0.689148 1.912442,-1.700424 2.45795,-2.786206 0.388588,-0.773448 0.716121,-1.875372 0.761284,-2.561194 l 0.01564,-0.237637 -1.169663,-0.0142 -1.169667,-0.0142 -0.03031,0.357453 c -0.156734,1.848105 -0.474371,3.14256 -1.085495,4.42368 -0.166259,0.348525 -0.412901,0.797246 -0.548094,0.997144 -0.135195,0.199887 -0.245808,0.372481 -0.245808,0.383513 0,0.03973 0.719323,-0.349215 1.014162,-0.548356 z m -4.657923,-4.50247 v -1.10897 h -1.706432 -1.706432 l 0.0182,0.330051 c 0.01793,0.325189 0.09705,1.011221 0.155312,1.346606 l 0.02982,0.171627 h 1.04308 c 1.139345,0 1.463288,0.04041 1.870864,0.233394 0.148058,0.0701 0.275136,0.12944 0.282398,0.131861 0.0073,0.0024 0.0132,-0.494635 0.0132,-1.104569 z M 9.8853496,62.556415 C 9.864812,62.419452 9.8214415,62.009528 9.7889841,61.645475 L 9.7299591,60.98356 8.5556979,60.96935 7.3814378,60.95513 l 1.689e-4,0.119829 c 4.114e-4,0.28806 0.2596673,1.531094 0.3526681,1.690871 0.012678,0.02178 0.5102622,0.0396 1.1057378,0.0396 h 1.0826873 z m -0.089382,-3.368331 c 0.057207,-0.634137 0.1639103,-1.354363 0.2585044,-1.744918 0.02173,-0.0897 -0.02354,-0.128451 -0.2687039,-0.230067 C 9.6236122,57.145888 9.2735522,56.959846 9.0078567,56.79967 8.5465113,56.521546 8.5213421,56.512889 8.4485131,56.607272 8.2797234,56.826018 7.8009464,57.896775 7.6726517,58.342444 7.5333661,58.82629 7.3814309,59.602227 7.3814309,59.829709 v 0.126114 l 1.173918,-0.01422 1.1739201,-0.01422 z m 4.3977104,-0.13202 v -0.897738 h -0.226011 c -0.379913,0 -1.496973,-0.154095 -2.144415,-0.295816 -0.337276,-0.07382 -0.6479,-0.138467 -0.690269,-0.143643 -0.100956,-0.01233 -0.253866,0.821972 -0.300725,1.640844 l -0.03399,0.594091 h 1.697708 1.697706 z m 4.447356,0.377991 c -0.0121,-0.399544 -0.18773,-1.682846 -0.23664,-1.729038 -0.0068,-0.0065 -0.190697,0.0324 -0.408531,0.08639 -0.619658,0.1536 -1.28587,0.260255 -2.046314,0.327596 l -0.699709,0.06196 v 0.851207 c 0,0.468165 0.01618,0.867379 0.03593,0.887143 0.01976,0.01976 0.786142,0.02966 1.703063,0.022 l 1.667128,-0.01393 z m 3.4298,0.255707 c -0.02353,-0.357256 -0.19754,-1.155528 -0.352557,-1.617317 -0.15297,-0.45569 -0.695279,-1.55117 -0.767896,-1.55117 -0.02558,0 -0.195832,0.09689 -0.378339,0.215296 -0.18251,0.118415 -0.517842,0.302485 -0.745184,0.409048 -0.399681,0.187342 -0.412438,0.198995 -0.385747,0.35239 0.06645,0.381874 0.24987,1.774338 0.276663,2.100337 l 0.02937,0.357453 1.169666,-0.0142 1.169664,-0.0142 z m -7.877155,-4.567687 v -1.98009 l -0.262727,0.09983 c -0.342371,0.13009 -0.882428,0.517924 -1.163637,0.835648 -0.495136,0.559426 -1.005704,1.4407 -1.284885,2.217801 l -0.136982,0.381283 0.196327,0.05248 c 0.805563,0.215297 1.700281,0.35862 2.295449,0.367706 l 0.356455,0.0054 z m 2.75163,1.824406 c 0.828302,-0.153811 1.112132,-0.228184 1.13911,-0.29849 0.0588,-0.153239 -0.535385,-1.418035 -0.945825,-2.013301 -0.458205,-0.664535 -1.225928,-1.299688 -1.769935,-1.464299 l -0.118818,-0.03595 v 1.991803 1.991802 l 0.573296,-0.03482 c 0.315312,-0.01915 0.820288,-0.08069 1.122172,-0.136743 z m -6.453666,-0.986677 c 0.178963,-0.499004 0.636637,-1.410604 0.917806,-1.828097 0.132034,-0.19605 0.224349,-0.356155 0.205145,-0.355789 -0.01921,3.7e-4 -0.218363,0.101367 -0.442573,0.224435 -0.575786,0.316057 -1.16435,0.761507 -1.6254568,1.230215 l -0.3960602,0.40259 0.1473036,0.114007 c 0.1806511,0.139817 0.9415334,0.561293 1.0149454,0.56221 0.02931,3.72e-4 0.109805,-0.15694 0.17889,-0.349571 z m 9.132884,0.112069 c 0.251492,-0.130994 0.514486,-0.282456 0.584433,-0.336582 L 20.336133,55.636881 20.077145,55.36 c -0.459556,-0.491303 -1.358119,-1.164082 -1.975225,-1.478905 -0.122048,-0.06226 -0.230792,-0.104323 -0.241653,-0.09346 -0.01087,0.01086 0.09108,0.184805 0.226528,0.386543 0.28308,0.421613 0.673668,1.196972 0.883082,1.75301 0.0793,0.210573 0.156162,0.382859 0.170792,0.382859 0.01464,0 0.232367,-0.107181 0.483858,-0.238168 z"
       id="path5" /></g><g
     inkscape:groupmode="layer"
     inkscape:label="Image"
     id="g1"
     style="display:inline"
     transform="translate(-0.25233513,-0.4494377)"><path
       d="m 41.396854,73.528084 h -11.97 v -21.42 h 11.97 v 2.37 h -9.27 v 6.69 h 8.73 v 2.34 h -8.73 v 7.65 h 9.27 z m 12.089993,-16.38 c 1.92,0 3.37,0.47 4.35,1.41 0.98,0.92 1.47,2.42 1.47,4.5 v 10.47 h -2.61 v -10.29 c 0,-2.58 -1.2,-3.87 -3.6,-3.87 -1.78,0 -3.01,0.5 -3.69,1.5 -0.68,1 -1.02,2.44 -1.02,4.32 v 8.34 h -2.64 v -16.08 h 2.13 l 0.39,2.19 h 0.15 c 0.52,-0.84 1.24,-1.46 2.16,-1.86 0.92,-0.42 1.89,-0.63 2.91,-0.63 z"
       id="text3"
       style="font-size:30px;fill:#ffa500"
       aria-label="English"
       sodipodi:nodetypes="cccccccccccccscsccsssscccccccs" /><path
       style="font-size:95px;font-family:'Old English Text MT';-inkscape-font-specification:'Old English Text MT';white-space:pre;fill:#ffffff;stroke-width:1.09172"
       d="m 153.64481,21.155066 0.88134,2.543178 q -3.33984,1.935027 -4.96337,3.870054 -1.57715,1.879741 -2.22657,4.25706 -0.64941,2.322032 -0.64941,6.966096 0,1.492736 0.0464,3.980627 l 0.78857,41.299004 q 0.0928,6.800237 1.20606,8.901124 0.78857,1.492735 1.90185,1.492735 1.34522,0 4.17481,-3.206617 l 1.34521,2.045601 -8.62793,8.790552 -2.87598,2.81961 q -3.66455,-2.0456 -5.2417,-5.41808 -1.53076,-3.37247 -1.7163,-10.780861 L 119.73613,104.91409 Q 104.75322,93.138069 99.325974,93.138069 q -1.34522,0 -2.27295,0.995156 -0.6958,0.718724 -0.6958,2.045595 0,1.43745 0.88135,3.15133 1.15967,2.32204 1.15967,3.04076 0,1.05044 -0.64942,1.82445 -0.64941,0.71873 -1.57715,0.71873 -1.15967,0 -1.85547,-1.10573 -1.0205,-1.49274 -1.0205,-3.87005 0,-2.65376 1.25244,-5.915658 1.29883,-3.317189 3.80371,-7.187243 0.51025,-0.829297 0.92773,-1.548021 l 6.633296,-10.780865 q -6.726066,-6.026227 -9.462886,-11.554875 -2.69043,-5.528649 -2.69043,-12.384173 0,-7.961253 3.38623,-14.761491 3.432616,-6.800237 10.251466,-10.725577 6.86523,-3.925341 14.10156,-3.925341 11.08643,0 21.38428,9.177556 2.50488,-3.151329 4.82422,-5.141643 2.31933,-2.045599 5.9375,-4.035913 z m -22.82227,12.826465 q -5.84472,-3.427763 -11.64306,-3.427763 -6.16944,0 -11.59668,3.261902 -5.42725,3.206617 -8.117676,8.34826 -2.69043,5.086356 -2.69043,10.449146 0,11.333728 10.297846,20.068993 L 122.56571,47.416146 Q 119.0867,45.1494 116.3035,45.1494 q -3.8501,0 -6.3086,4.312346 -0.46386,0.884583 -0.92773,0.884583 -0.27832,0 -0.55664,-0.331718 -0.23193,-0.331719 -0.23193,-0.829298 0,-1.713881 1.43798,-4.754638 1.48438,-3.040756 4.31397,-4.920496 2.87598,-1.879741 6.03027,-1.879741 3.24707,0 7.37549,1.879741 z m 5.98389,5.694508 q -1.34522,-1.769168 -1.80908,-2.266747 -0.32471,-0.387005 -2.31934,-2.045599 l -20.271,32.950744 h 24.95606 z m -29.40918,36.710225 -4.17481,6.91081 23.56446,12.10774 10.94726,-9.619848 -0.18554,-9.398702 z m 97.22656,-55.231198 1.71631,1.271589 q -3.8501,7.85068 -5.47363,13.876908 -1.62354,6.026226 -2.13379,14.098053 L 216.49881,33.594525 227.30692,48.577162 208.845,64.278524 q 4.26758,2.709038 7.42188,6.74495 3.20068,3.980628 7.42187,12.494746 4.22119,8.514118 5.14893,9.730421 0.92773,1.161016 1.80908,1.161016 0.88135,0 2.69043,-2.156173 l 2.41211,-2.709037 1.43799,2.0456 -11.5503,13.324043 q -2.4121,-1.99031 -3.80371,-4.0912 -1.3916,-2.15617 -6.07666,-12.163028 l -11.96777,16.254228 q -5.56641,-2.93018 -10.06592,-4.20177 -4.49951,-1.27159 -9.23095,-1.27159 -4.63868,0 -9.0918,1.27159 -4.45313,1.2163 -10.25147,4.20177 l -1.48437,-2.54318 q 9.0918,-8.62469 13.03467,-15.314355 1.94824,-3.317189 1.94824,-6.413233 0,-2.930183 -1.62354,-4.86521 -1.62353,-1.935027 -3.85009,-1.935027 -2.04102,0 -3.61817,2.432605 l -1.62353,-0.884583 q 0.83496,-3.261902 2.7832,-5.03107 1.99463,-1.824454 4.49951,-1.824454 1.62354,0 3.38623,0.774011 1.7627,0.77401 3.66455,2.377319 0.0928,-1.769168 0.0928,-3.096043 0,-5.915654 -2.87598,-9.564563 -2.87598,-3.648907 -6.91162,-3.648907 -2.31934,0 -4.63867,2.432604 l -1.53077,-0.718723 q 1.11329,-3.538335 3.29346,-5.307503 2.18018,-1.824454 5.05615,-1.824454 1.53077,0 3.29346,0.774011 1.80908,0.718725 3.80371,2.211459 -0.0928,-2.322032 -0.0928,-4.035913 0,-5.141643 1.76269,-9.066983 1.7627,-3.92534 10.06592,-14.263914 -4.91699,3.372476 -7.79297,4.533492 -2.82959,1.105731 -5.61279,1.105731 -1.48437,0 -3.8501,-0.497579 -2.36572,-0.497578 -3.38623,-0.497578 -3.38623,0 -5.75195,2.100886 -2.31934,2.0456 -4.45313,6.91081 l -1.53076,-0.442292 q 0.97412,-5.583934 2.36573,-8.348258 2.18017,-4.422919 5.42724,-6.855524 3.29346,-2.432606 6.6333,-2.432606 2.59766,0 6.44776,1.437449 3.85009,1.437448 6.30859,1.437448 4.03564,0 8.67432,-2.874897 l 1.66992,1.271589 q -3.80371,6.634379 -5.75196,15.203783 -1.90185,8.514119 -1.90185,16.530659 l 0.18555,15.756648 q 0,3.538335 -0.92774,6.523805 -0.92773,2.930184 -2.69043,5.307503 -1.71631,2.322032 -2.13379,2.764324 L 171.87478,98.11385 q 3.57178,-2.266744 7.65381,-4.36763 7.42187,-3.759481 10.57617,-6.523805 3.20068,-2.764325 4.91699,-7.021383 1.71631,-4.312347 1.71631,-10.891438 l -0.23193,-17.194097 q 0,-6.247373 1.80908,-14.208626 1.85547,-8.016541 6.30859,-16.751805 z m 5.89111,21.285297 -11.78222,11.278442 V 55.3774 l 0.0928,8.790551 -0.0928,5.362789 19.48242,-16.420087 z m 4.2212,44.063327 q -4.31397,-8.237686 -7.97852,-11.278442 -3.66455,-3.096043 -8.0249,-3.317189 -0.13916,6.247372 -2.0874,10.393859 -1.90186,4.146486 -6.44776,7.961253 7.14356,0.442292 10.52979,1.437449 3.38623,0.995156 7.51465,3.538335 z"
       id="text4"
       aria-label="AK" /></g></svg>
