<?xml version="1.0" encoding="UTF-8" standalone="no"?>
<!-- Created with Inkscape (http://www.inkscape.org/) -->

<svg
   version="1.1"
   id="svg1"
   width="277.8728"
   height="83.759026"
   viewBox="0 0 277.8728 83.759027"
   sodipodi:docname="logo.en.png"
   inkscape:export-filename="logo.en.svg"
   inkscape:export-xdpi="96"
   inkscape:export-ydpi="96"
   xmlns:inkscape="http://www.inkscape.org/namespaces/inkscape"
   xmlns:sodipodi="http://sodipodi.sourceforge.net/DTD/sodipodi-0.dtd"
   xmlns="http://www.w3.org/2000/svg"
   xmlns:svg="http://www.w3.org/2000/svg">
  <defs
     id="defs1" />
  <sodipodi:namedview
     id="namedview1"
     pagecolor="#ffffff"
     bordercolor="#000000"
     borderopacity="0.25"
     inkscape:showpageshadow="2"
     inkscape:pageopacity="0.0"
     inkscape:pagecheckerboard="0"
     inkscape:deskcolor="#d1d1d1" />
  <g
     inkscape:groupmode="layer"
     inkscape:label="Image"
     id="g1"
     style="display:inline"
     transform="translate(-1.3369663,-25.155065)">
    <path
       d="M 13.306966,77.528084 H 1.3369663 v -21.42 H 13.306966 v 2.37 H 4.0369663 v 6.69 h 8.7299997 v 2.34 H 4.0369663 v 7.65 h 9.2699997 z m 12.089993,-16.38 q 2.88,0 4.35,1.41 1.47,1.38 1.47,4.5 v 10.47 h -2.61 v -10.29 q 0,-3.87 -3.6,-3.87 -2.67,0 -3.69,1.5 -1.02,1.5 -1.02,4.32 v 8.34 h -2.64 v -16.08 h 2.13 l 0.39,2.19 h 0.15 q 0.78,-1.26 2.16,-1.86 1.38,-0.63 2.91,-0.63 z m 16.500001,0 q 1.59,0 2.85,0.6 1.29,0.6 2.19,1.83 h 0.15 l 0.36,-2.13 h 2.1 v 16.35 q 0,3.45 -1.77,5.19 -1.74,1.74 -5.43,1.74 -3.54,0 -5.79,-1.02 v -2.43 q 2.37,1.26 5.94,1.26 2.07,0 3.24,-1.23 1.2,-1.2 1.2,-3.3 v -0.63 q 0,-0.36 0.03,-1.02 0.03,-0.69 0.06,-0.96 h -0.12 q -1.62,2.43 -4.98,2.43 -3.12,0 -4.89,-2.19 -1.74,-2.19 -1.74,-6.12 0,-3.84 1.74,-6.09 1.77,-2.28 4.86,-2.28 z m 0.36,2.22 q -2.01,0 -3.12,1.62 -1.11,1.59 -1.11,4.56 0,2.97 1.08,4.56 1.11,1.56 3.21,1.56 2.43,0 3.54,-1.29 1.11,-1.32 1.11,-4.23 v -0.63 q 0,-3.3 -1.14,-4.71 -1.14,-1.44 -3.57,-1.44 z m 15.029993,14.16 h -2.64 v -22.8 h 2.64 z m 6.449983,-22.11 q 0.6,0 1.05,0.42 0.48,0.39 0.48,1.26 0,0.84 -0.48,1.26 -0.45,0.42 -1.05,0.42 -0.66,0 -1.11,-0.42 -0.45,-0.42 -0.45,-1.26 0,-0.87 0.45,-1.26 0.45,-0.42 1.11,-0.42 z m 1.29,6.03 v 16.08 h -2.64 v -16.08 z m 15.569978,11.64 q 0,2.34 -1.74,3.54 -1.74,1.2 -4.68,1.2 -1.68,0 -2.91,-0.27 -1.2,-0.27 -2.13,-0.75 v -2.4 q 0.96,0.48 2.31,0.9 1.38,0.39 2.79,0.39 2.01,0 2.91,-0.63 0.9,-0.66 0.9,-1.74 0,-0.6 -0.33,-1.08 -0.33,-0.48 -1.2,-0.96 -0.84,-0.48 -2.43,-1.08 -1.56,-0.6 -2.67,-1.2 -1.11,-0.6 -1.71,-1.44 -0.6,-0.84 -0.6,-2.16 0,-2.04 1.65,-3.15 1.68,-1.11 4.38,-1.11 1.47,0 2.73,0.3 1.29,0.27 2.4,0.78 l -0.9,2.1 q -1.02,-0.42 -2.13,-0.72 -1.11,-0.3 -2.28,-0.3 -1.62,0 -2.49,0.54 -0.84,0.51 -0.84,1.41 0,0.66 0.39,1.14 0.39,0.45 1.29,0.9 0.93,0.42 2.46,1.02 1.53,0.57 2.61,1.17 1.08,0.6 1.65,1.47 0.57,0.84 0.57,2.13 z m 6.540011,-11.67 q 0,1.2 -0.15,2.25 h 0.18 q 0.78,-1.23 2.1,-1.86 1.35,-0.63 2.91,-0.63 2.94,0 4.41,1.41 1.47,1.38 1.47,4.47 v 10.47 h -2.61 v -10.29 q 0,-3.87 -3.6,-3.87 -2.7,0 -3.72,1.53 -0.99,1.5 -0.99,4.32 v 8.31 h -2.64 v -22.8 h 2.64 z"
       id="text3"
       style="font-size:30px;fill:#ffa500"
       aria-label="English" />
    <path
       style="font-size:95px;font-family:'Old English Text MT';-inkscape-font-specification:'Old English Text MT';white-space:pre;fill:#ffffff"
       d="m 192.07178,29.42473 0.88134,2.133789 q -3.33984,1.623535 -4.96337,3.24707 -1.57715,1.577149 -2.22657,3.571778 -0.64941,1.948242 -0.64941,5.844726 0,1.252442 0.0464,3.339844 l 0.78857,34.650879 q 0.0928,5.705566 1.20606,7.468262 0.78857,1.252441 1.90185,1.252441 1.34522,0 4.17481,-2.69043 l 1.34521,1.716309 -8.62793,7.375488 -2.87598,2.365723 q -3.66455,-1.716309 -5.2417,-4.545899 -1.53076,-2.829589 -1.7163,-9.04541 L 158.1631,99.700609 q -14.98291,-9.880371 -20.41016,-9.880371 -1.34522,0 -2.27295,0.834961 -0.6958,0.603027 -0.6958,1.716308 0,1.206055 0.88135,2.644043 1.15967,1.948242 1.15967,2.55127 0,0.881347 -0.64942,1.530761 -0.64941,0.603028 -1.57715,0.603028 -1.15967,0 -1.85547,-0.927735 -1.0205,-1.252441 -1.0205,-3.24707 0,-2.226562 1.25244,-4.963379 1.29883,-2.783203 3.80371,-6.030273 0.51025,-0.695801 0.92773,-1.298828 l 6.6333,-9.045411 q -6.72607,-5.056152 -9.46289,-9.694824 -2.69043,-4.638672 -2.69043,-10.390625 0,-6.679687 3.38623,-12.385254 3.43262,-5.705566 10.25147,-8.999023 6.86523,-3.293457 14.10156,-3.293457 11.08643,0 21.38428,7.700195 2.50488,-2.644043 4.82422,-4.313965 2.31933,-1.716308 5.9375,-3.38623 z m -22.82227,10.761719 q -5.84472,-2.875977 -11.64306,-2.875977 -6.16944,0 -11.59668,2.736816 -5.42725,2.69043 -8.11768,7.004395 -2.69043,4.267578 -2.69043,8.76709 0,9.509277 10.29785,16.838379 l 15.49317,-21.198731 q -3.47901,-1.901855 -6.26221,-1.901855 -3.8501,0 -6.3086,3.618164 -0.46386,0.742187 -0.92773,0.742187 -0.27832,0 -0.55664,-0.27832 -0.23193,-0.27832 -0.23193,-0.695801 0,-1.437988 1.43798,-3.989258 1.48438,-2.551269 4.31397,-4.128417 2.87598,-1.577149 6.03027,-1.577149 3.24707,0 7.37549,1.577149 z m 5.98389,4.777832 q -1.34522,-1.484375 -1.80908,-1.901856 -0.32471,-0.324707 -2.31934,-1.716308 l -20.271,27.646484 h 24.95606 z m -29.40918,30.800781 -4.17481,5.79834 23.56446,10.158691 10.94726,-8.071289 -0.18554,-7.885742 z m 97.22656,-46.340332 1.71631,1.066894 q -3.8501,6.586914 -5.47363,11.643067 -1.62354,5.056152 -2.13379,11.828613 l 17.76611,-14.101562 10.80811,12.5708 -18.46192,13.173829 q 4.26758,2.272949 7.42188,5.659179 3.20068,3.339844 7.42187,10.483399 4.22119,7.143554 5.14893,8.164062 0.92773,0.974121 1.80908,0.974121 0.88135,0 2.69043,-1.809082 l 2.41211,-2.272949 1.43799,1.716309 -11.5503,11.179199 q -2.4121,-1.669922 -3.80371,-3.432617 -1.3916,-1.809082 -6.07666,-10.205079 l -11.96777,13.637696 q -5.56641,-2.458496 -10.06592,-3.525391 -4.49951,-1.066894 -9.23095,-1.066894 -4.63868,0 -9.0918,1.066894 -4.45313,1.020508 -10.25147,3.525391 l -1.48437,-2.133789 q 9.0918,-7.236328 13.03467,-12.849121 1.94824,-2.783203 1.94824,-5.38086 0,-2.458496 -1.62354,-4.082031 -1.62353,-1.623535 -3.85009,-1.623535 -2.04102,0 -3.61817,2.041015 l -1.62353,-0.742187 q 0.83496,-2.736816 2.7832,-4.221191 1.99463,-1.530762 4.49951,-1.530762 1.62354,0 3.38623,0.649414 1.7627,0.649414 3.66455,1.994629 0.0928,-1.484375 0.0928,-2.597656 0,-4.963379 -2.87598,-8.024903 -2.87598,-3.061523 -6.91162,-3.061523 -2.31934,0 -4.63867,2.041015 l -1.53077,-0.603027 q 1.11329,-2.96875 3.29346,-4.453125 2.18018,-1.530762 5.05615,-1.530762 1.53077,0 3.29346,0.649414 1.80908,0.603028 3.80371,1.855469 -0.0928,-1.948242 -0.0928,-3.38623 0,-4.313965 1.76269,-7.607422 1.7627,-3.293457 10.06592,-11.967774 -4.91699,2.82959 -7.79297,3.803711 -2.82959,0.927735 -5.61279,0.927735 -1.48437,0 -3.8501,-0.417481 -2.36572,-0.41748 -3.38623,-0.41748 -3.38623,0 -5.75195,1.762695 -2.31934,1.716309 -4.45313,5.79834 l -1.53076,-0.371094 q 0.97412,-4.685058 2.36573,-7.004394 2.18017,-3.710938 5.42724,-5.751953 3.29346,-2.041016 6.6333,-2.041016 2.59766,0 6.44776,1.206055 3.85009,1.206054 6.30859,1.206054 4.03564,0 8.67432,-2.412109 l 1.66992,1.066894 q -3.80371,5.566407 -5.75196,12.756348 -1.90185,7.143555 -1.90185,13.869629 l 0.18555,13.220215 q 0,2.96875 -0.92774,5.473633 -0.92773,2.458496 -2.69043,4.453125 -1.71631,1.948242 -2.13379,2.319336 l -13.63769,11.411132 q 3.57178,-1.901855 7.65381,-3.66455 7.42187,-3.154297 10.57617,-5.473633 3.20068,-2.319336 4.91699,-5.891113 1.71631,-3.618165 1.71631,-9.138184 l -0.23193,-14.42627 q 0,-5.241699 1.80908,-11.921386 1.85547,-6.726075 6.30859,-14.055176 z m 5.89111,17.858887 -11.78222,9.46289 v 1.391602 l 0.0928,7.375488 -0.0928,4.499512 19.48242,-13.776856 z m 4.2212,36.970214 q -4.31397,-6.911621 -7.97852,-9.46289 -3.66455,-2.597656 -8.0249,-2.783203 -0.13916,5.241699 -2.0874,8.720703 -1.90186,3.479004 -6.44776,6.679687 7.14356,0.371094 10.52979,1.206055 3.38623,0.834961 7.51465,2.96875 z"
       id="text4"
       transform="matrix(1,0,0,1.1918602,3.5955056,-9.9150983)"
       aria-label="AK" />
  </g>
</svg>
