<?xml version="1.0" encoding="UTF-8" standalone="no"?>
<!-- Created with Inkscape (http://www.inkscape.org/) -->

<svg
   version="1.1"
   id="svg1"
   width="239.63171"
   height="83.759026"
   viewBox="0 0 239.63171 83.759027"
   sodipodi:docname="logo.ar.png"
   inkscape:export-filename="logo.ar.svg"
   inkscape:export-xdpi="96"
   inkscape:export-ydpi="96"
   xmlns:inkscape="http://www.inkscape.org/namespaces/inkscape"
   xmlns:sodipodi="http://sodipodi.sourceforge.net/DTD/sodipodi-0.dtd"
   xmlns="http://www.w3.org/2000/svg"
   xmlns:svg="http://www.w3.org/2000/svg">
  <defs
     id="defs1" />
  <sodipodi:namedview
     id="namedview1"
     pagecolor="#ffffff"
     bordercolor="#000000"
     borderopacity="0.25"
     inkscape:showpageshadow="2"
     inkscape:pageopacity="0.0"
     inkscape:pagecheckerboard="0"
     inkscape:deskcolor="#d1d1d1" />
  <g
     inkscape:groupmode="layer"
     inkscape:label="Image"
     id="g1"
     transform="translate(-2.5332926,-25.127342)">
    <path
       style="font-size:95px;font-family:'Old English Text MT';-inkscape-font-specification:'Old English Text MT';white-space:pre;fill:#ffffff"
       d="m 192.07178,29.42473 0.88134,2.133789 q -3.33984,1.623535 -4.96337,3.24707 -1.57715,1.577149 -2.22657,3.571778 -0.64941,1.948242 -0.64941,5.844726 0,1.252442 0.0464,3.339844 l 0.78857,34.650879 q 0.0928,5.705566 1.20606,7.468262 0.78857,1.252441 1.90185,1.252441 1.34522,0 4.17481,-2.69043 l 1.34521,1.716309 -8.62793,7.375488 -2.87598,2.365723 q -3.66455,-1.716309 -5.2417,-4.545899 -1.53076,-2.829589 -1.7163,-9.04541 L 158.1631,99.700609 q -14.98291,-9.880371 -20.41016,-9.880371 -1.34522,0 -2.27295,0.834961 -0.6958,0.603027 -0.6958,1.716308 0,1.206055 0.88135,2.644043 1.15967,1.948242 1.15967,2.55127 0,0.881347 -0.64942,1.530761 -0.64941,0.603028 -1.57715,0.603028 -1.15967,0 -1.85547,-0.927735 -1.0205,-1.252441 -1.0205,-3.24707 0,-2.226562 1.25244,-4.963379 1.29883,-2.783203 3.80371,-6.030273 0.51025,-0.695801 0.92773,-1.298828 l 6.6333,-9.045411 q -6.72607,-5.056152 -9.46289,-9.694824 -2.69043,-4.638672 -2.69043,-10.390625 0,-6.679687 3.38623,-12.385254 3.43262,-5.705566 10.25147,-8.999023 6.86523,-3.293457 14.10156,-3.293457 11.08643,0 21.38428,7.700195 2.50488,-2.644043 4.82422,-4.313965 2.31933,-1.716308 5.9375,-3.38623 z m -22.82227,10.761719 q -5.84472,-2.875977 -11.64306,-2.875977 -6.16944,0 -11.59668,2.736816 -5.42725,2.69043 -8.11768,7.004395 -2.69043,4.267578 -2.69043,8.76709 0,9.509277 10.29785,16.838379 l 15.49317,-21.198731 q -3.47901,-1.901855 -6.26221,-1.901855 -3.8501,0 -6.3086,3.618164 -0.46386,0.742187 -0.92773,0.742187 -0.27832,0 -0.55664,-0.27832 -0.23193,-0.27832 -0.23193,-0.695801 0,-1.437988 1.43798,-3.989258 1.48438,-2.551269 4.31397,-4.128417 2.87598,-1.577149 6.03027,-1.577149 3.24707,0 7.37549,1.577149 z m 5.98389,4.777832 q -1.34522,-1.484375 -1.80908,-1.901856 -0.32471,-0.324707 -2.31934,-1.716308 l -20.271,27.646484 h 24.95606 z m -29.40918,30.800781 -4.17481,5.79834 23.56446,10.158691 10.94726,-8.071289 -0.18554,-7.885742 z m 97.22656,-46.340332 1.71631,1.066894 q -3.8501,6.586914 -5.47363,11.643067 -1.62354,5.056152 -2.13379,11.828613 l 17.76611,-14.101562 10.80811,12.5708 -18.46192,13.173829 q 4.26758,2.272949 7.42188,5.659179 3.20068,3.339844 7.42187,10.483399 4.22119,7.143554 5.14893,8.164062 0.92773,0.974121 1.80908,0.974121 0.88135,0 2.69043,-1.809082 l 2.41211,-2.272949 1.43799,1.716309 -11.5503,11.179199 q -2.4121,-1.669922 -3.80371,-3.432617 -1.3916,-1.809082 -6.07666,-10.205079 l -11.96777,13.637696 q -5.56641,-2.458496 -10.06592,-3.525391 -4.49951,-1.066894 -9.23095,-1.066894 -4.63868,0 -9.0918,1.066894 -4.45313,1.020508 -10.25147,3.525391 l -1.48437,-2.133789 q 9.0918,-7.236328 13.03467,-12.849121 1.94824,-2.783203 1.94824,-5.38086 0,-2.458496 -1.62354,-4.082031 -1.62353,-1.623535 -3.85009,-1.623535 -2.04102,0 -3.61817,2.041015 l -1.62353,-0.742187 q 0.83496,-2.736816 2.7832,-4.221191 1.99463,-1.530762 4.49951,-1.530762 1.62354,0 3.38623,0.649414 1.7627,0.649414 3.66455,1.994629 0.0928,-1.484375 0.0928,-2.597656 0,-4.963379 -2.87598,-8.024903 -2.87598,-3.061523 -6.91162,-3.061523 -2.31934,0 -4.63867,2.041015 l -1.53077,-0.603027 q 1.11329,-2.96875 3.29346,-4.453125 2.18018,-1.530762 5.05615,-1.530762 1.53077,0 3.29346,0.649414 1.80908,0.603028 3.80371,1.855469 -0.0928,-1.948242 -0.0928,-3.38623 0,-4.313965 1.76269,-7.607422 1.7627,-3.293457 10.06592,-11.967774 -4.91699,2.82959 -7.79297,3.803711 -2.82959,0.927735 -5.61279,0.927735 -1.48437,0 -3.8501,-0.417481 -2.36572,-0.41748 -3.38623,-0.41748 -3.38623,0 -5.75195,1.762695 -2.31934,1.716309 -4.45313,5.79834 l -1.53076,-0.371094 q 0.97412,-4.685058 2.36573,-7.004394 2.18017,-3.710938 5.42724,-5.751953 3.29346,-2.041016 6.6333,-2.041016 2.59766,0 6.44776,1.206055 3.85009,1.206054 6.30859,1.206054 4.03564,0 8.67432,-2.412109 l 1.66992,1.066894 q -3.80371,5.566407 -5.75196,12.756348 -1.90185,7.143555 -1.90185,13.869629 l 0.18555,13.220215 q 0,2.96875 -0.92774,5.473633 -0.92773,2.458496 -2.69043,4.453125 -1.71631,1.948242 -2.13379,2.319336 l -13.63769,11.411132 q 3.57178,-1.901855 7.65381,-3.66455 7.42187,-3.154297 10.57617,-5.473633 3.20068,-2.319336 4.91699,-5.891113 1.71631,-3.618165 1.71631,-9.138184 l -0.23193,-14.42627 q 0,-5.241699 1.80908,-11.921386 1.85547,-6.726075 6.30859,-14.055176 z m 5.89111,17.858887 -11.78222,9.46289 v 1.391602 l 0.0928,7.375488 -0.0928,4.499512 19.48242,-13.776856 z m 4.2212,36.970214 q -4.31397,-6.911621 -7.97852,-9.46289 -3.66455,-2.597656 -8.0249,-2.783203 -0.13916,5.241699 -2.0874,8.720703 -1.90186,3.479004 -6.44776,6.679687 7.14356,0.371094 10.52979,1.206055 3.38623,0.834961 7.51465,2.96875 z"
       id="text4"
       transform="matrix(1,0,0,1.1918602,-33.449245,-9.942823)"
       aria-label="AK" />
    <path
       style="font-size:28.2705px;font-family:'Noto Kufi Arabic';-inkscape-font-specification:'Noto Kufi Arabic';fill:#ffa500;stroke-width:1.57059"
       d="m 46.465663,70.327377 q -0.141352,0 -0.141352,-0.141352 V 68.23536 q 0,-0.113082 0.141352,-0.113082 h 4.353657 q -0.904656,-0.763303 -1.470066,-2.092017 -0.537139,-1.328713 -0.537139,-2.940132 0,-3.194566 1.837582,-4.975608 1.837583,-1.781041 4.890797,-1.781041 1.215631,0 2.233369,0.254434 1.046009,0.226164 1.69623,0.56541 l -0.763303,2.120288 q -1.781042,-0.735033 -3.307649,-0.735033 -4.014411,0 -4.014411,4.664632 0,2.205099 0.961197,3.562083 0.961197,1.356984 2.516075,1.356984 h 5.032149 v 2.205099 z m -3.222813,0 v 0.678492 q 0,2.855321 -1.300443,4.466739 -1.300443,1.639689 -3.731706,1.639689 -1.385255,0 -2.883591,-0.791574 L 36.062143,74.4266 q 0.678492,0.310975 1.13082,0.395787 0.452328,0.08481 0.961197,0.08481 1.272172,0 1.978935,-1.046008 0.735033,-1.017738 0.735033,-2.713968 V 56.616185 h 2.374722 v 11.506093 h 3.505542 q 0.141352,0 0.141352,0.113082 v 1.950665 q 0,0.141352 -0.141352,0.141352 z m -15.43571,0 q -0.141353,0 -0.141353,-0.141352 V 68.23536 q 0,-0.113082 0.141353,-0.113082 h 3.731706 V 56.616185 h 2.516074 v 13.711192 z m 3.731728,6.191214 q -0.735033,0 -1.15909,-0.452328 -0.424058,-0.424057 -0.424058,-1.243902 0,-0.819844 0.424058,-1.272172 0.424057,-0.424058 1.15909,-0.424058 0.763304,0 1.159091,0.452328 0.424057,0.480599 0.424057,1.243902 0,0.763304 -0.424057,1.215632 -0.395787,0.480598 -1.159091,0.480598 z M 8.2156631,77.112297 q -2.657427,0 -4.184034,-1.837582 -1.4983365,-1.837583 -1.4983365,-4.975608 0,-1.470066 0.226164,-2.657427 0.2544345,-1.187361 0.7633035,-2.431263 h 2.3464515 q -0.452328,1.187361 -0.621951,2.318181 -0.169623,1.102549 -0.169623,2.600886 0,2.28991 0.9329265,3.533812 0.961197,1.243902 2.7422385,1.243902 h 5.2583134 q 1.356984,0 2.402992,-0.367516 1.046009,-0.339246 1.639689,-0.932927 0.621951,-0.56541 0.621951,-1.243902 0,-1.102549 -2.092017,-1.7245 -1.385254,-0.424058 -2.431263,-0.819845 -1.017738,-0.424057 -1.583148,-1.102549 -0.56541,-0.706763 -0.56541,-1.865853 0,-1.611419 0.989468,-3.166296 0.989467,-1.498337 2.516074,-2.431263 1.526607,-0.961197 3.081485,-0.961197 0.989467,0 1.69623,0.339246 0.735033,0.339246 1.385254,1.017738 0.650222,0.650221 1.611419,2.176828 1.752771,2.82705 2.798779,3.618624 0.424058,0.310976 0.876386,0.508869 0.452328,0.169623 0.989467,0.169623 h 0.141353 q 0.141352,0 0.141352,0.113082 v 1.950665 q 0,0.141352 -0.141352,0.141352 h -0.141353 q -1.187361,0 -2.28991,-0.537139 -1.10255,-0.53714 -2.26164,-1.752771 -0.282705,-0.339246 -1.441796,-1.950665 -1.328713,-1.865853 -2.148558,-2.600886 -0.735033,-0.650221 -1.526607,-0.650221 -0.59368,0 -1.243902,0.367516 -0.650221,0.339246 -1.215631,0.904656 -0.56541,0.56541 -0.932927,1.215632 -0.339246,0.621951 -0.339246,1.187361 0,0.59368 0.650222,0.961197 0.650221,0.367516 1.470066,0.59368 1.046008,0.282705 1.752771,0.53714 0.706762,0.254434 1.13082,0.480598 1.7245,0.904656 1.7245,2.431263 0,5.597559 -7.265518,5.597559 z m 1.0460294,5.880242 q -0.6502215,0 -1.1025495,-0.395787 -0.4805985,-0.395787 -0.4805985,-1.300443 0,-0.904656 0.4805985,-1.300443 0.452328,-0.395787 1.1025495,-0.395787 0.735033,0 1.1590905,0.424057 0.424058,0.452328 0.424058,1.272173 0,0.819844 -0.424058,1.243902 -0.4240575,0.452328 -1.1590905,0.452328 z m 4.8907965,0 q -0.735033,0 -1.15909,-0.452328 -0.424058,-0.424058 -0.424058,-1.243902 0,-0.819845 0.424058,-1.272173 0.424057,-0.424057 1.15909,-0.424057 0.763304,0 1.159091,0.452328 0.424057,0.480598 0.424057,1.243902 0,0.763303 -0.424057,1.215631 -0.395787,0.480599 -1.159091,0.480599 z"
       id="text3"
       aria-label="عربي" />
  </g>
</svg>
