<?xml version="1.0" encoding="UTF-8" standalone="no"?>
<!-- Created with Inkscape (http://www.inkscape.org/) -->

<svg
   width="48.088806mm"
   height="22.489584mm"
   viewBox="0 0 48.088806 22.489584"
   version="1.1"
   id="svg1"
   sodipodi:docname="logo.ar.svg"
   inkscape:version="1.4.2 (f4327f4, 2025-05-13)"
   xmlns:inkscape="http://www.inkscape.org/namespaces/inkscape"
   xmlns:sodipodi="http://sodipodi.sourceforge.net/DTD/sodipodi-0.dtd"
   xmlns="http://www.w3.org/2000/svg"
   xmlns:svg="http://www.w3.org/2000/svg">
  <sodipodi:namedview
     id="namedview1"
     pagecolor="#ffffff"
     bordercolor="#000000"
     borderopacity="0.25"
     inkscape:showpageshadow="2"
     inkscape:pageopacity="0.0"
     inkscape:pagecheckerboard="0"
     inkscape:deskcolor="#d1d1d1"
     inkscape:document-units="mm"
     inkscape:zoom="3.17"
     inkscape:cx="90.851735"
     inkscape:cy="42.429022"
     inkscape:window-width="1920"
     inkscape:window-height="1017"
     inkscape:window-x="-8"
     inkscape:window-y="-8"
     inkscape:window-maximized="1"
     inkscape:current-layer="layer1" />
  <defs
     id="defs1" />
  <g
     inkscape:label="Layer 1"
     inkscape:groupmode="layer"
     id="layer1"
     transform="translate(-26.506463,-69.095007)">
    <rect
       style="fill:#000000;stroke-width:0.0724017"
       id="rect1"
       width="46.93771"
       height="10.341837"
       x="26.506464"
       y="77.119347"
       ry="2.3819885"
       inkscape:export-filename="logo.en.svg"
       inkscape:export-xdpi="96"
       inkscape:export-ydpi="96" />
    <rect
       style="fill:#000000;stroke-width:0.0814333"
       id="rect2"
       width="27.305161"
       height="22.489584"
       x="47.290108"
       y="69.095009"
       ry="2.0463903" />
    <path
       id="text1"
       style="font-weight:bold;font-size:19.05px;font-family:'Montserrat Alternates';-inkscape-font-specification:'Montserrat Alternates Bold';display:inline;fill:#ffffff;stroke-width:0.299112"
       d="m 55.605617,74.106807 c -4.134929,0 -6.912884,2.498037 -6.912884,7.085223 v 8.248375 h 3.445634 V 85.82243 h 6.891852 v 3.617975 h 3.488866 V 81.19203 c 0,-4.587186 -2.778539,-7.085223 -6.913468,-7.085223 z m 13.323937,0.258218 -5.240308,5.527737 v 4.238982 l 0.588293,-0.613414 4.824355,5.922075 h 4.070148 l -6.611434,-8.355869 6.245139,-6.719511 z m -13.345552,2.713627 c 2.067464,0 3.446217,1.22752 3.446217,3.790314 v 2.153959 h -6.891852 v -2.153959 c 0,-2.562794 1.356634,-3.790314 3.445635,-3.790314 z"
       sodipodi:nodetypes="ssccccccsscccccccccssccss" />
    <path
       style="fill:#ffa500;fill-opacity:1;stroke-width:0.0681756"
       d="m 26.526832,82.217116 v -3.717101 h 3.900771 3.900773 v 3.717101 3.717099 h -3.900773 -3.900771 z m 7.784053,0 v -3.699612 h -3.883282 -3.883278 v 3.699612 3.69961 h 3.883278 3.883282 z m -6.41853,3.580991 c -0.07294,-0.07298 -0.06967,-0.136224 0.01598,-0.309292 0.07215,-0.145775 0.158214,-0.379877 0.157296,-0.427899 -2.85e-4,-0.0152 -0.04691,-0.05408 -0.103644,-0.08664 -0.124763,-0.07148 -0.188836,-0.135695 -0.269757,-0.270581 -0.108881,-0.181487 -0.115887,-0.248597 -0.115595,-1.108201 2.86e-4,-0.845896 0.006,-0.901595 0.108055,-1.09348 0.09795,-0.183789 0.302981,-0.333879 0.517891,-0.379137 0.05098,-0.0113 0.171545,-0.01953 0.267936,-0.01953 0.158912,0 0.174331,-0.0025 0.165579,-0.03066 -0.0052,-0.01676 -0.02705,-0.109307 -0.04833,-0.205532 -0.03303,-0.149382 -0.03872,-0.228565 -0.03905,-0.542263 -3.29e-4,-0.313798 0.0052,-0.39282 0.0379,-0.542253 0.126956,-0.580372 0.363721,-1.017298 0.772999,-1.426581 0.410804,-0.410797 0.872044,-0.658142 1.440082,-0.772257 0.286559,-0.05759 0.778973,-0.0572 1.05352,6.25e-4 0.759419,0.16022 1.379361,0.57479 1.796059,1.201121 0.546154,0.820921 0.613208,1.873736 0.176359,2.769021 -0.414218,0.848902 -1.270798,1.447641 -2.202879,1.53977 l -0.119371,0.0113 -0.0108,0.192405 c -0.01793,0.320847 -0.122228,0.515347 -0.356619,0.664703 -0.191195,0.121822 -0.180182,0.120429 -1.034961,0.12714 l -0.772581,0.0063 -0.102027,0.123188 c -0.282766,0.341404 -0.736124,0.585257 -1.154814,0.621149 -0.123083,0.01 -0.126813,0.01 -0.179305,-0.04281 z m 0.671486,-0.466662 c 0.18067,-0.101775 0.388954,-0.298899 0.512156,-0.4848 0.02342,-0.03529 0.05573,-0.07074 0.07176,-0.07875 0.01598,-0.0077 0.403052,-0.01832 0.860038,-0.02316 0.815979,-0.0087 0.832182,-0.01 0.903345,-0.04745 0.0906,-0.04845 0.19334,-0.166711 0.21613,-0.248735 0.01029,-0.03706 0.01714,-0.388438 0.01695,-0.867004 -2.72e-4,-0.742761 -0.0028,-0.810077 -0.03237,-0.875293 -0.04044,-0.089 -0.171311,-0.205477 -0.261132,-0.232381 -0.04987,-0.01481 -0.41347,-0.02052 -1.328447,-0.02052 h -1.259793 l -0.09351,0.04882 c -0.104505,0.05458 -0.196854,0.162364 -0.224545,0.262081 -0.02444,0.08802 -0.02444,1.581574 0,1.669621 0.04013,0.144527 0.174411,0.260102 0.365751,0.314862 0.05775,0.01658 0.0867,0.03744 0.111771,0.08062 0.03261,0.05608 0.0328,0.0636 0.0055,0.203238 -0.01559,0.07974 -0.04821,0.203052 -0.0723,0.274063 -0.0241,0.07099 -0.04387,0.130726 -0.04394,0.132713 -3.95e-4,0.01247 0.163885,-0.05783 0.252677,-0.107801 z m 0.06875,-1.174154 c -0.105092,-0.05184 -0.126615,-0.187433 -0.04302,-0.271007 l 0.05113,-0.05107 h 0.848377 0.848376 l 0.05172,0.04357 c 0.09801,0.0825 0.07714,0.232122 -0.03912,0.280696 -0.09344,0.03907 -1.637925,0.03718 -1.717479,-0.0025 z m 0.01754,-0.864048 c -0.113848,-0.04595 -0.146145,-0.196042 -0.0606,-0.281573 l 0.05113,-0.05107 h 0.848377 0.848376 l 0.05173,0.04357 c 0.0626,0.05271 0.07844,0.120429 0.04618,0.197607 -0.04495,0.107546 -0.0559,0.108796 -0.947431,0.107546 -0.440458,-7.39e-4 -0.817457,-0.0077 -0.837774,-0.01598 z m 3.119514,0.321324 c 0.343602,-0.236656 0.635801,-0.764599 0.77366,-1.397838 0.03715,-0.17069 0.08826,-0.55252 0.08826,-0.659423 v -0.0661 h -0.568489 -0.568498 v 1.128169 1.128184 l 0.09145,-0.0348 c 0.0503,-0.01912 0.132929,-0.06336 0.183634,-0.09827 z m 0.917987,-0.264636 c 0.337969,-0.228278 0.63348,-0.563247 0.814174,-0.922904 0.128717,-0.256194 0.23721,-0.62121 0.25217,-0.848375 l 0.0051,-0.07873 -0.387441,-0.0051 -0.387441,-0.0051 -0.01,0.118425 c -0.05191,0.612174 -0.15714,1.040949 -0.35956,1.465318 -0.05507,0.115426 -0.136771,0.264071 -0.181548,0.330285 -0.04478,0.06621 -0.08143,0.123438 -0.08143,0.127036 0,0.01301 0.238269,-0.115669 0.335935,-0.181644 z m -1.542897,-1.491408 v -0.36733 h -0.5652 -0.565242 l 0.0061,0.109307 c 0.006,0.107667 0.03216,0.334968 0.05145,0.446051 l 0.01,0.05683 h 0.345511 c 0.377398,0 0.484703,0.01346 0.619709,0.07737 0.04906,0.0233 0.09113,0.04281 0.09354,0.04368 0.0023,8.01e-4 0.0044,-0.163846 0.0044,-0.36588 z m -1.427099,0.162402 c -0.0068,-0.04532 -0.02116,-0.181136 -0.03192,-0.30174 l -0.01955,-0.219253 -0.388965,-0.0051 -0.388964,-0.0051 5.7e-5,0.03969 c 1.35e-4,0.0954 0.08601,0.507158 0.116835,0.56008 0.0044,0.0077 0.169011,0.01301 0.366266,0.01301 h 0.35863 z m -0.02961,-1.115724 c 0.01891,-0.210051 0.05428,-0.44862 0.08564,-0.577994 0.0071,-0.02967 -0.0078,-0.04259 -0.08899,-0.07625 -0.05371,-0.02229 -0.169673,-0.08388 -0.257678,-0.136944 -0.152812,-0.09215 -0.161156,-0.09501 -0.185269,-0.06372 -0.0559,0.07248 -0.214501,0.427134 -0.256999,0.574763 -0.04614,0.160278 -0.09644,0.417296 -0.09644,0.492638 v 0.04182 l 0.388851,-0.0051 0.388852,-0.0051 z m 1.456706,-0.04367 v -0.297378 h -0.07487 c -0.125826,0 -0.495857,-0.05107 -0.710318,-0.09804 -0.111723,-0.02441 -0.214613,-0.04583 -0.228647,-0.04758 -0.03344,-0.0037 -0.08409,0.272269 -0.09961,0.543514 l -0.0113,0.196793 h 0.562353 0.562352 z m 1.473148,0.125211 c -0.0041,-0.132345 -0.06218,-0.557425 -0.07839,-0.572725 -0.0023,-0.0025 -0.06315,0.0113 -0.135324,0.02867 -0.205256,0.05084 -0.425934,0.08626 -0.677826,0.108541 l -0.231773,0.02053 v 0.281962 c 0,0.155076 0.0055,0.287307 0.0119,0.293856 0.0064,0.0063 0.260404,0.01 0.564126,0.0077 l 0.552222,-0.0051 z m 1.136094,0.08477 c -0.0078,-0.118316 -0.06545,-0.382768 -0.116786,-0.535727 -0.05067,-0.150941 -0.230306,-0.513809 -0.254358,-0.513809 -0.0085,0 -0.06486,0.03204 -0.125328,0.07136 -0.06045,0.03919 -0.171527,0.100159 -0.246835,0.135502 -0.132382,0.06209 -0.136613,0.06585 -0.127784,0.116689 0.02201,0.126498 0.08276,0.587733 0.09163,0.695726 l 0.0098,0.11845 0.387444,-0.0051 0.387439,-0.0051 z m -2.609245,-1.513017 v -0.655889 l -0.08703,0.03304 c -0.11341,0.04307 -0.292296,0.171547 -0.385446,0.276792 -0.164001,0.185306 -0.33313,0.477226 -0.425606,0.734637 l -0.04536,0.126299 0.06503,0.01735 c 0.266834,0.07136 0.563204,0.118815 0.760347,0.121821 l 0.118073,0.0013 z m 0.911454,0.604324 c 0.274367,-0.05097 0.368382,-0.07563 0.37732,-0.09889 0.01949,-0.0507 -0.177336,-0.469702 -0.313296,-0.666882 C 31.968428,79.17692 31.714129,78.96653 31.53393,78.912008 l -0.03937,-0.01248 v 0.65976 0.65977 l 0.189889,-0.0113 c 0.104452,-0.0063 0.271712,-0.02679 0.37171,-0.04532 z M 29.91846,79.835988 c 0.05928,-0.165288 0.210881,-0.467249 0.304015,-0.605538 0.04372,-0.06497 0.07431,-0.11794 0.06795,-0.117807 -0.0064,1.25e-4 -0.07232,0.03355 -0.146594,0.07438 -0.190728,0.104651 -0.385681,0.252239 -0.538418,0.407506 l -0.131199,0.133357 0.04879,0.03782 c 0.05985,0.04633 0.311875,0.185931 0.336193,0.186224 0.0098,1.25e-4 0.03637,-0.05195 0.05926,-0.115802 z m 3.025191,0.03718 c 0.0833,-0.04346 0.170414,-0.09351 0.193593,-0.111431 l 0.04214,-0.03255 -0.08578,-0.09177 c -0.152226,-0.162736 -0.449866,-0.385585 -0.654277,-0.48987 -0.04044,-0.02066 -0.07643,-0.03455 -0.08004,-0.03092 -0.0037,0.0037 0.03019,0.06121 0.07505,0.128034 0.09376,0.139674 0.223148,0.396489 0.292512,0.580674 0.02625,0.06973 0.05172,0.126825 0.05658,0.126825 0.0048,0 0.07696,-0.03556 0.160278,-0.07888 z"
       id="path5" />
    <path
       style="font-size:32px;font-family:Georgia;-inkscape-font-specification:Georgia;white-space:pre;fill:#ffa500"
       d="m 148.22656,322.06046 -3.95312,2.60938 q -3.25,0 -5.03125,-0.26563 -3.07813,-0.45312 -4.75,-1.8125 -2.10938,-1.70312 -2.10938,-4.89062 0,-1.9375 0.59375,-3.48438 0.48438,-1.26562 1.39063,-2.39062 0.4375,-0.53125 1.53125,-1.60938 -1.5,-0.75 -2.07813,-1.29687 -1.28125,-1.20313 -1.28125,-3.04688 0,-1.65625 1.39063,-3.25 1.59375,-1.82812 3.85937,-1.82812 1.01563,0 2.15625,0.59375 0.76563,0.39062 1.92188,1.29687 -1.53125,0 -3.14063,0.20313 -2.07812,0.26562 -3.35937,0.76562 -1.5625,0.60938 -1.5625,1.5 0,0.95313 1.79687,1.8125 1.51563,0.71875 3.4375,1.01563 1.5625,-0.84375 3.04688,-1.4375 1.65625,-0.65625 3.4375,-1.09375 l -0.65625,2.4375 q -3.25,1.26562 -4.6875,1.9375 -2.90625,1.375 -4.45313,2.8125 -1.98437,1.84375 -1.98437,3.95312 0,2.20313 1.65625,3.46875 1.4375,1.09375 4.23437,1.54688 2.21875,0.35937 5.65625,0.35937 0.73438,0 1.46875,-0.0156 0.73438,-0.0156 1.46875,-0.0312 z"
       id="text5"
       transform="matrix(0.31279669,0,0,0.31279669,-5.9349729,-15.589475)"
       aria-label="ع" />
  </g>
</svg>
