<?xml version="1.0" encoding="UTF-8" standalone="no"?>
<!-- Created with Inkscape (http://www.inkscape.org/) -->

<svg
   width="42.333336mm"
   height="22.489584mm"
   viewBox="0 0 42.333336 22.489584"
   version="1.1"
   id="svg1"
   xmlns:inkscape="http://www.inkscape.org/namespaces/inkscape"
   xmlns:sodipodi="http://sodipodi.sourceforge.net/DTD/sodipodi-0.dtd"
   xmlns="http://www.w3.org/2000/svg"
   xmlns:svg="http://www.w3.org/2000/svg">
  <sodipodi:namedview
     id="namedview1"
     pagecolor="#ffffff"
     bordercolor="#000000"
     borderopacity="0.25"
     inkscape:showpageshadow="2"
     inkscape:pageopacity="0.0"
     inkscape:pagecheckerboard="0"
     inkscape:deskcolor="#d1d1d1"
     inkscape:document-units="mm" />
  <defs
     id="defs1" />
  <g
     inkscape:label="Layer 1"
     inkscape:groupmode="layer"
     id="layer1"
     transform="translate(-31.110842,-69.095007)">
    <rect
       style="fill:#000000;stroke-width:0.0598866"
       id="rect1"
       width="42.333332"
       height="7.8451099"
       x="31.110842"
       y="77.344513"
       ry="1.8069286" />
    <rect
       style="fill:#000000;stroke-width:0.0828513"
       id="rect2"
       width="28.264404"
       height="22.489584"
       x="45.179768"
       y="69.095009"
       ry="2.0463903" />
    <path
       style="fill:#ffa500;fill-opacity:1;stroke-width:0.0349729"
       d="m 32.427772,81.217156 v -1.906809 h 2.001029 2.00103 v 1.906809 1.906809 h -2.00103 -2.001029 z m 3.993086,0 v -1.897838 h -1.992057 -1.992055 v 1.897838 1.897837 h 1.992055 1.992057 z m -3.292596,1.836987 c -0.03742,-0.03744 -0.03574,-0.06988 0.0082,-0.158661 0.03701,-0.07478 0.08116,-0.19487 0.08069,-0.219505 -1.47e-4,-0.0078 -0.02407,-0.02774 -0.05317,-0.04444 -0.064,-0.03667 -0.09687,-0.06961 -0.138381,-0.138804 -0.05586,-0.0931 -0.05945,-0.127526 -0.0593,-0.568488 1.47e-4,-0.433931 0.003,-0.462503 0.05543,-0.560937 0.05025,-0.09428 0.155424,-0.171274 0.265669,-0.19449 0.02615,-0.0058 0.088,-0.01002 0.137446,-0.01002 0.08152,0 0.08943,-0.0013 0.08494,-0.01573 -0.0027,-0.0086 -0.01388,-0.05607 -0.02479,-0.105434 -0.01694,-0.07663 -0.01986,-0.11725 -0.02003,-0.278172 -1.7e-4,-0.160973 0.0027,-0.20151 0.01944,-0.278166 0.06513,-0.297721 0.186583,-0.521857 0.396536,-0.731812 0.210735,-0.210732 0.447343,-0.337616 0.738737,-0.396155 0.147,-0.02954 0.3996,-0.02935 0.540438,3.21e-4 0.389569,0.08219 0.707588,0.294857 0.921347,0.616155 0.280168,0.421118 0.314566,0.961194 0.09047,1.42046 -0.212487,0.435472 -0.651898,0.742615 -1.130039,0.789876 l -0.06124,0.0058 -0.0055,0.0987 c -0.0092,0.164589 -0.0627,0.264364 -0.18294,0.340982 -0.09808,0.06249 -0.09243,0.06178 -0.530918,0.06522 l -0.39632,0.0032 -0.05234,0.06319 c -0.145054,0.175134 -0.377619,0.300227 -0.5924,0.318639 -0.06314,0.0051 -0.06505,0.0051 -0.09198,-0.02196 z m 0.344461,-0.239389 c 0.09268,-0.05221 0.199527,-0.15333 0.262727,-0.248694 0.01202,-0.01811 0.02859,-0.03629 0.03681,-0.0404 0.0082,-0.0039 0.206759,-0.0094 0.441185,-0.01188 0.418583,-0.0045 0.426895,-0.0051 0.4634,-0.02434 0.04647,-0.02485 0.09918,-0.08552 0.110871,-0.127597 0.0053,-0.01901 0.0088,-0.199262 0.0087,-0.444758 -1.39e-4,-0.381024 -0.0014,-0.415556 -0.01661,-0.44901 -0.02074,-0.04566 -0.08788,-0.105407 -0.133956,-0.119209 -0.02558,-0.0076 -0.212103,-0.01053 -0.681471,-0.01053 h -0.646253 l -0.04797,0.02505 c -0.05361,0.028 -0.100983,0.08329 -0.115188,0.134443 -0.01254,0.04515 -0.01254,0.81132 0,0.856487 0.02059,0.07414 0.08947,0.133428 0.187624,0.161519 0.02962,0.0085 0.04447,0.0192 0.05734,0.04136 0.01672,0.02877 0.01683,0.03262 0.0028,0.104258 -0.008,0.04091 -0.02473,0.104162 -0.03709,0.140589 -0.01236,0.03641 -0.0225,0.06706 -0.02254,0.06808 -2.03e-4,0.0064 0.08407,-0.02967 0.129619,-0.0553 z m 0.03527,-0.602321 c -0.05391,-0.02659 -0.06495,-0.09615 -0.02207,-0.139022 l 0.02623,-0.0262 h 0.435203 0.435203 l 0.02654,0.02235 c 0.05027,0.04232 0.03957,0.119075 -0.02007,0.143993 -0.04793,0.02004 -0.840228,0.01907 -0.881038,-0.0013 z m 0.009,-0.443242 c -0.0584,-0.02357 -0.07497,-0.100566 -0.03109,-0.144442 l 0.02623,-0.0262 h 0.435203 0.435203 l 0.02654,0.02235 c 0.03211,0.02704 0.04024,0.06178 0.02369,0.101369 -0.02306,0.05517 -0.02868,0.05581 -0.486016,0.05517 -0.225947,-3.79e-4 -0.419341,-0.0039 -0.429764,-0.0082 z m 1.600258,0.164833 c 0.176261,-0.1214 0.326155,-0.392225 0.396874,-0.717067 0.01906,-0.08756 0.04528,-0.283432 0.04528,-0.338272 v -0.03391 h -0.29163 -0.29163 v 0.578732 0.578739 l 0.04691,-0.01785 c 0.0258,-0.0098 0.06819,-0.0325 0.0942,-0.05041 z m 0.470911,-0.135753 c 0.173373,-0.117103 0.324965,-0.288936 0.417658,-0.473434 0.06603,-0.131424 0.121684,-0.31867 0.129359,-0.435202 l 0.0026,-0.04039 -0.198751,-0.0026 -0.198751,-0.0026 -0.0051,0.06075 c -0.02663,0.314034 -0.08061,0.533989 -0.184449,0.751683 -0.02825,0.05921 -0.07016,0.135464 -0.09313,0.169431 -0.02297,0.03397 -0.04177,0.06332 -0.04177,0.06517 0,0.0067 0.122228,-0.05934 0.172328,-0.09318 z m -0.79148,-0.765067 V 80.84477 h -0.289938 -0.289959 l 0.0031,0.05607 c 0.003,0.05523 0.01649,0.171833 0.02639,0.228817 l 0.0051,0.02916 h 0.177241 c 0.193599,0 0.248644,0.0069 0.3179,0.03969 0.02516,0.01195 0.04675,0.02196 0.04799,0.02241 0.0012,4.11e-4 0.0022,-0.08405 0.0022,-0.18769 z m -0.732077,0.08331 c -0.0035,-0.02325 -0.01086,-0.09292 -0.01638,-0.154788 l -0.01003,-0.112473 -0.199532,-0.0026 -0.199532,-0.0026 2.9e-5,0.02036 c 6.9e-5,0.04894 0.04412,0.260164 0.05993,0.287311 0.0022,0.0039 0.0867,0.0067 0.187888,0.0067 h 0.183971 z m -0.01519,-0.572348 c 0.0097,-0.107752 0.02785,-0.230134 0.04393,-0.296501 0.0037,-0.01522 -0.004,-0.02184 -0.04565,-0.03911 -0.02755,-0.01143 -0.08704,-0.04303 -0.132184,-0.07025 -0.07839,-0.04727 -0.08267,-0.04874 -0.09504,-0.03269 -0.02868,0.03718 -0.110035,0.219113 -0.131836,0.294844 -0.02367,0.08222 -0.04948,0.214066 -0.04948,0.252715 v 0.02145 l 0.199474,-0.0026 0.199474,-0.0026 z m 0.747265,-0.02241 v -0.152547 h -0.03841 c -0.06455,0 -0.254367,-0.0262 -0.364381,-0.05029 -0.05731,-0.01252 -0.110093,-0.02351 -0.117292,-0.0244 -0.01715,-0.0019 -0.04314,0.13967 -0.0511,0.278814 l -0.0058,0.100951 h 0.288477 0.288477 z m 0.7557,0.06423 c -0.0021,-0.06789 -0.0319,-0.28595 -0.04021,-0.293798 -0.0012,-0.0013 -0.0324,0.0058 -0.06942,0.01471 -0.105293,0.02608 -0.218497,0.04425 -0.347713,0.05568 l -0.118895,0.01053 v 0.144642 c 0,0.07955 0.0028,0.147383 0.0061,0.150742 0.0033,0.0032 0.133583,0.0051 0.289387,0.0039 l 0.283281,-0.0026 z m 0.582797,0.04348 c -0.004,-0.06069 -0.03357,-0.196353 -0.05991,-0.274819 -0.02599,-0.07743 -0.118143,-0.263575 -0.130482,-0.263575 -0.0044,0 -0.03327,0.01644 -0.06429,0.03661 -0.03101,0.0201 -0.08799,0.05138 -0.126622,0.06951 -0.06791,0.03185 -0.07008,0.03378 -0.06555,0.05986 0.01129,0.06489 0.04246,0.301497 0.04701,0.356895 l 0.005,0.06076 0.198752,-0.0026 0.19875,-0.0026 z M 34.79668,79.853315 v -0.33646 l -0.04464,0.01695 c -0.05818,0.02209 -0.149943,0.088 -0.197727,0.141989 -0.08413,0.09506 -0.17089,0.244809 -0.218329,0.376856 l -0.02327,0.06479 0.03336,0.0089 c 0.136882,0.03661 0.288914,0.06095 0.390045,0.06249 l 0.06057,6.42e-4 z m 0.467561,0.310007 c 0.140746,-0.02614 0.188974,-0.03879 0.193559,-0.05073 0.01,-0.02601 -0.09097,-0.240949 -0.160716,-0.342099 -0.07786,-0.112922 -0.208311,-0.220848 -0.30075,-0.248817 l -0.02019,-0.0064 v 0.338445 0.338451 l 0.09741,-0.0058 c 0.05358,-0.0032 0.139384,-0.01374 0.190681,-0.02325 z m -1.096616,-0.167658 c 0.03041,-0.08479 0.108179,-0.239691 0.155955,-0.310631 0.02243,-0.03333 0.03812,-0.0605 0.03486,-0.06043 -0.0033,6.5e-5 -0.0371,0.01721 -0.0752,0.03815 -0.09784,0.05369 -0.197848,0.129395 -0.276199,0.209044 l -0.0673,0.06841 0.02503,0.0194 c 0.0307,0.02376 0.159986,0.09538 0.172461,0.09553 0.005,6.4e-5 0.01866,-0.02665 0.0304,-0.05941 z m 1.551872,0.01907 c 0.04273,-0.02229 0.08742,-0.04797 0.09931,-0.05716 l 0.02161,-0.0167 -0.044,-0.04708 c -0.07809,-0.08348 -0.230774,-0.197798 -0.335633,-0.251295 -0.02074,-0.0106 -0.03921,-0.01772 -0.04106,-0.01586 -0.0019,0.0019 0.01548,0.0314 0.0385,0.06568 0.0481,0.07165 0.114471,0.203392 0.150054,0.297876 0.01347,0.03577 0.02654,0.06506 0.02902,0.06506 0.0025,0 0.03948,-0.01824 0.08222,-0.04046 z"
       id="path5" />
    <path
       d="m 39.419102,82.980833 h -2.033957 v -3.639711 h 2.033957 v 0.402712 h -1.57517 v 1.136772 h 1.483413 v 0.397619 h -1.483413 v 1.299896 h 1.57517 z m 2.054348,-2.783308 c 0.326249,0 0.572635,0.07986 0.739158,0.239588 0.166522,0.156329 0.249784,0.411208 0.249784,0.764649 v 1.779071 h -0.443494 v -1.748489 c 0,-0.438393 -0.203906,-0.657597 -0.611717,-0.657597 -0.30246,0 -0.511463,0.08497 -0.62701,0.254886 -0.115547,0.169919 -0.17332,0.414605 -0.17332,0.73406 v 1.41714 h -0.448592 v -2.732335 h 0.361933 l 0.06627,0.37213 h 0.02549 c 0.08836,-0.142734 0.210703,-0.248084 0.36703,-0.316051 0.156328,-0.07137 0.321151,-0.107052 0.494471,-0.107052 z"
       id="text3"
       style="font-size:30px;display:inline;fill:#ffa500;stroke-width:0.169921"
       aria-label="English"
       sodipodi:nodetypes="cccccccccccccscsccsssscccccccs" />
    <path
       style="font-size:95px;font-family:'Old English Text MT';-inkscape-font-specification:'Old English Text MT';white-space:pre;display:inline;fill:#ffffff;stroke-width:0.185507"
       d="m 57.434088,73.401857 0.14976,0.432145 q -0.567513,0.328798 -0.843386,0.657603 -0.267992,0.31941 -0.378339,0.723367 -0.110347,0.394563 -0.110347,1.183687 0,0.253645 0.0079,0.676395 l 0.133993,7.017575 q 0.0158,1.155505 0.204939,1.512491 0.133994,0.253652 0.323167,0.253652 0.228579,0 0.709385,-0.544874 l 0.22858,0.34759 -1.466071,1.4937 -0.488686,0.47911 q -0.622686,-0.34759 -0.890679,-0.920645 -0.260106,-0.573054 -0.291633,-1.831894 l -3.05037,2.752539 q -2.545916,-2.000991 -3.468122,-2.000991 -0.228581,0 -0.386223,0.169097 -0.118231,0.122125 -0.118231,0.34759 0,0.24425 0.149761,0.535479 0.197052,0.394562 0.197052,0.516687 0,0.178493 -0.11035,0.310013 -0.110349,0.122125 -0.267991,0.122125 -0.197053,0 -0.315285,-0.187882 -0.173404,-0.253652 -0.173404,-0.657603 0,-0.45093 0.212816,-1.0052 0.220699,-0.563659 0.646331,-1.221263 0.0867,-0.140916 0.157642,-0.263041 l 1.127141,-1.831901 q -1.142905,-1.023984 -1.607949,-1.963421 -0.457161,-0.939436 -0.457161,-2.104331 0,-1.35279 0.575392,-2.508295 0.583272,-1.155506 1.741944,-1.822505 1.166545,-0.666999 2.396151,-0.666999 1.883824,0 3.633648,1.559463 0.425633,-0.535478 0.819733,-0.873672 0.394106,-0.34759 1.008911,-0.685791 z m -3.877988,2.17949 q -0.993146,-0.58245 -1.978404,-0.58245 -1.048319,0 -1.970524,0.55427 -0.922206,0.544874 -1.379367,1.418547 -0.457162,0.864277 -0.457162,1.775532 0,1.925838 1.749822,3.410149 l 2.632617,-4.293217 q -0.591153,-0.385173 -1.064079,-0.385173 -0.654212,0 -1.071965,0.732763 -0.07882,0.150312 -0.15764,0.150312 -0.04727,0 -0.09459,-0.05639 -0.03943,-0.05639 -0.03943,-0.140917 0,-0.291222 0.24434,-0.807915 0.252226,-0.516687 0.733039,-0.836097 0.488686,-0.319409 1.024665,-0.319409 0.551746,0 1.253252,0.319409 z m 1.016785,0.967617 q -0.228579,-0.300617 -0.307399,-0.385166 -0.05517,-0.06576 -0.394106,-0.34759 l -3.444476,5.599035 h 4.240568 z m -4.99724,6.237854 -0.709392,1.17429 4.004101,2.057366 1.860178,-1.634617 -0.03153,-1.597039 z m 16.520859,-9.384961 0.291639,0.216076 q -0.654212,1.333992 -0.930085,2.357976 -0.275873,1.023985 -0.36258,2.39556 l 3.018843,-2.855879 1.836525,2.545866 -3.13707,2.667996 q 0.725153,0.460326 1.261132,1.14611 0.543866,0.676395 1.261132,2.123123 0.717272,1.446734 0.874918,1.653407 0.15764,0.197284 0.3074,0.197284 0.14976,0 0.45716,-0.366381 l 0.409872,-0.460326 0.244347,0.347597 -1.962644,2.264032 Q 69.257226,87.296104 69.02076,86.939118 68.7843,86.572743 67.988208,84.872364 l -2.033577,2.761934 q -0.945853,-0.497895 -1.710418,-0.713965 -0.764559,-0.216069 -1.568532,-0.216069 -0.788212,0 -1.544891,0.216069 -0.756685,0.206674 -1.741944,0.713965 L 59.136619,87.20216 q 1.544892,-1.465519 2.214864,-2.602233 0.331047,-0.56366 0.331047,-1.089749 0,-0.497895 -0.275873,-0.8267 -0.275867,-0.328799 -0.654213,-0.328799 -0.346813,0 -0.614799,0.413347 l -0.275873,-0.150305 q 0.141879,-0.55427 0.472926,-0.854888 0.338926,-0.310014 0.764559,-0.310014 0.275873,0 0.575393,0.131521 0.299519,0.131521 0.622685,0.403958 0.0158,-0.300618 0.0158,-0.526083 0,-1.0052 -0.488693,-1.625227 -0.488692,-0.620027 -1.174431,-0.620027 -0.394106,0 -0.788213,0.413354 L 59.601691,79.50819 q 0.189173,-0.601242 0.559626,-0.90186 0.37046,-0.310014 0.859152,-0.310014 0.260107,0 0.559626,0.131521 0.3074,0.122125 0.646333,0.375777 -0.01573,-0.394562 -0.01573,-0.685791 0,-0.873672 0.299513,-1.540672 0.299526,-0.666999 1.710418,-2.423746 -0.835499,0.573061 -1.324192,0.770339 -0.480806,0.187888 -0.953732,0.187888 -0.252226,0 -0.654212,-0.08455 -0.401986,-0.08455 -0.575393,-0.08455 -0.575392,0 -0.977379,0.356986 -0.394106,0.34759 -0.756685,1.174291 l -0.260107,-0.07515 q 0.16552,-0.948832 0.401987,-1.418547 0.370459,-0.751548 0.922205,-1.164901 0.559626,-0.413354 1.127139,-0.413354 0.441399,0 1.095612,0.244256 0.654212,0.24425 1.071965,0.24425 0.685739,0 1.473951,-0.488506 l 0.283753,0.216076 q -0.646332,1.127318 -0.977379,2.583441 -0.323166,1.446734 -0.323166,2.808914 l 0.03153,2.677392 q 0,0.601236 -0.15764,1.108533 -0.157639,0.497896 -0.457159,0.901854 -0.29164,0.394562 -0.362579,0.469721 l -2.317337,2.311011 q 0.606925,-0.385173 1.300545,-0.742158 1.261138,-0.638812 1.797117,-1.108534 0.543866,-0.469715 0.835499,-1.193082 0.29164,-0.732756 0.29164,-1.850685 l -0.03943,-2.921642 q 0,-1.061562 0.3074,-2.414351 0.315286,-1.36218 1.071965,-2.84649 z m 1.001025,3.616829 -2.002051,1.916449 v 0.281826 l 0.0158,1.493706 -0.0158,0.911249 3.310483,-2.790121 z m 0.717273,7.487296 q -0.733033,-1.399755 -1.355719,-1.916449 -0.622686,-0.526082 -1.363605,-0.563659 -0.02363,1.061561 -0.354692,1.766137 -0.323167,0.704576 -1.095612,1.35279 1.213845,0.07515 1.789237,0.24425 0.575393,0.169097 1.276899,0.601242 z"
       id="text4"
       aria-label="AK" />
  </g>
</svg>
