<?xml version="1.0" encoding="UTF-8" standalone="no"?>
<!-- Created with Inkscape (http://www.inkscape.org/) -->

<svg
   version="1.1"
   id="svg1"
   width="236.93497"
   height="83.759026"
   viewBox="0 0 236.93497 83.759027"
   sodipodi:docname="logo.en.png"
   inkscape:export-filename="logo.en.svg"
   inkscape:export-xdpi="96"
   inkscape:export-ydpi="96"
   xml:space="preserve"
   xmlns:inkscape="http://www.inkscape.org/namespaces/inkscape"
   xmlns:sodipodi="http://sodipodi.sourceforge.net/DTD/sodipodi-0.dtd"
   xmlns="http://www.w3.org/2000/svg"
   xmlns:svg="http://www.w3.org/2000/svg"><defs
     id="defs1" /><sodipodi:namedview
     id="namedview1"
     pagecolor="#ffffff"
     bordercolor="#000000"
     borderopacity="0.25"
     inkscape:showpageshadow="2"
     inkscape:pageopacity="0.0"
     inkscape:pagecheckerboard="0"
     inkscape:deskcolor="#d1d1d1"
     showguides="true" /><g
     inkscape:groupmode="layer"
     id="layer2"
     inkscape:label="Image 1"
     transform="translate(1.3206986,-25.155065)"><path
       style="fill:#ffa500;fill-opacity:1;stroke-width:0.267642"
       d="M -1.3206986,66.699256 V 52.106743 H 13.992854 29.30641 V 66.699256 81.291767 H 13.992854 -1.3206986 Z m 30.5584376,0 V 52.175413 H 13.992854 -1.2520284 V 66.699256 81.223093 H 13.992854 29.237739 Z M 4.0400321,80.757393 C 3.7536815,80.471038 3.7665154,80.222625 4.1027655,79.543229 4.3860146,78.970914 4.7238414,78.051917 4.720281,77.863379 4.7191576,77.803969 4.5360594,77.650923 4.3133939,77.523457 3.8235851,77.243029 3.5720588,76.990743 3.2543895,76.46124 2.8268985,75.748704 2.7994218,75.485297 2.8005606,72.110676 c 0.00113,-3.32082 0.022723,-3.539472 0.4242205,-4.292746 0.3845545,-0.721499 1.1894353,-1.310734 2.0331205,-1.488402 0.2001456,-0.04215 0.6734786,-0.07663 1.0518555,-0.07663 0.6238493,0 0.6844231,-0.01131 0.6500577,-0.120168 -0.02085,-0.0661 -0.1062216,-0.429191 -0.1897235,-0.80688 -0.1296622,-0.586432 -0.1520425,-0.89728 -0.153287,-2.12879 -0.00134,-1.23193 0.020442,-1.542155 0.1487735,-2.128789 0.4984489,-2.278382 1.4278954,-3.99368 3.0346232,-5.600408 1.612726,-1.612725 3.423451,-2.583755 5.653437,-3.031746 1.124969,-0.225998 3.058077,-0.224794 4.135883,0.0025 2.981313,0.628935 5.415061,2.25652 7.050925,4.715347 2.14408,3.222721 2.407318,7.355857 0.692339,10.870544 -1.626128,3.332605 -4.988864,5.683093 -8.648001,6.044781 l -0.46868,0.04632 -0.04208,0.755377 c -0.07017,1.259525 -0.479851,2.023138 -1.400007,2.609462 -0.750576,0.478271 -0.707327,0.472964 -4.063035,0.499149 l -3.0329747,0.02365 -0.4005587,0.483637 c -1.1100739,1.340291 -2.8898577,2.297609 -4.5335412,2.43852 -0.4831934,0.04139 -0.4978125,0.03787 -0.7038739,-0.168125 z m 2.6361084,-1.831995 c 0.7093025,-0.399418 1.5269468,-1.173393 2.0106048,-1.903217 0.091989,-0.138813 0.2187475,-0.277866 0.2816991,-0.309021 0.062945,-0.03112 1.5822946,-0.07208 3.3763156,-0.09095 3.203356,-0.03364 3.266958,-0.03702 3.546325,-0.186468 0.355619,-0.190185 0.759036,-0.654449 0.848485,-0.976436 0.04046,-0.145627 0.06756,-1.524931 0.06689,-3.40368 -0.0011,-2.915905 -0.01085,-3.180186 -0.1271,-3.436197 -0.158705,-0.34938 -0.672551,-0.80667 -1.025142,-0.912309 -0.19577,-0.05865 -1.623191,-0.08075 -5.215192,-0.08075 H 5.4933784 l -0.3671085,0.191779 c -0.4103081,0.214348 -0.7728074,0.63744 -0.8815138,1.028861 -0.096001,0.345673 -0.096001,6.208898 0,6.554579 0.1575711,0.56736 0.6846639,1.021121 1.4358539,1.236097 0.2266961,0.0649 0.340337,0.146796 0.4388126,0.316371 0.1279587,0.220341 0.1287468,0.249948 0.02109,0.797894 -0.061495,0.312977 -0.189218,0.797133 -0.2838235,1.075914 -0.094607,0.278767 -0.172231,0.5132 -0.1724956,0.520972 -0.00155,0.04828 0.6433395,-0.227057 0.9919532,-0.423381 z M 6.9460757,74.315973 C 6.5335291,74.112455 6.4490192,73.580151 6.7771559,73.252026 l 0.20073,-0.200731 h 3.3305381 3.330541 l 0.203129,0.170912 c 0.384734,0.323734 0.302851,0.911253 -0.15358,1.101959 -0.366774,0.153244 -6.4301258,0.145881 -6.7424383,-0.0085 z m 0.069027,-3.392108 C 6.5681394,70.743281 6.4413549,70.154288 6.7771573,69.818487 l 0.2007299,-0.20073 h 3.3305388 3.330541 l 0.203129,0.170924 c 0.245688,0.206732 0.307887,0.472841 0.181323,0.775749 -0.176468,0.422351 -0.2195,0.427237 -3.719404,0.422394 -1.7291366,-0.0029 -3.2091474,-0.03069 -3.2889129,-0.06293 z m 12.2465163,1.261454 c 1.348893,-0.929021 2.496008,-3.001619 3.037207,-5.487597 0.145878,-0.670088 0.346531,-2.169052 0.346531,-2.588733 v -0.259565 h -2.231796 -2.231797 v 4.428976 4.428975 l 0.358954,-0.136421 c 0.197424,-0.07503 0.521831,-0.248567 0.7209,-0.385664 z m 3.603804,-1.038888 c 1.32679,-0.896155 2.486903,-2.211199 3.19627,-3.623128 0.505313,-1.005777 0.93123,-2.438697 0.989959,-3.330527 l 0.02034,-0.309018 -1.521007,-0.01847 -1.521012,-0.01846 -0.03941,0.464825 c -0.203814,2.403239 -0.616863,4.086523 -1.411557,5.752467 -0.2162,0.453215 -0.536928,1.036723 -0.71273,1.296666 -0.175805,0.259929 -0.319644,0.484367 -0.319644,0.498713 0,0.05166 0.935393,-0.454112 1.318796,-0.713071 z m -6.057071,-5.854924 v -1.442083 h -2.219011 -2.21901 l 0.02367,0.429192 c 0.02331,0.422869 0.126199,1.314972 0.201965,1.7511 l 0.03877,0.22318 h 1.356399 c 1.481582,0 1.902832,0.05255 2.432836,0.303501 0.19253,0.09116 0.357781,0.168321 0.367224,0.17147 0.0094,0.0031 0.01716,-0.643214 0.01716,-1.43636 z m -5.602467,0.637561 c -0.02671,-0.178104 -0.0831,-0.711162 -0.125312,-1.184569 l -0.07675,-0.860741 -1.5269864,-0.01848 -1.5269848,-0.01849 2.196e-4,0.155823 c 5.35e-4,0.374588 0.3376663,1.991005 0.4586027,2.198776 0.016486,0.02832 0.663535,0.05149 1.4378798,0.05149 h 1.4079051 z m -0.116231,-4.380112 c 0.07439,-0.824619 0.213146,-1.761187 0.336155,-2.269057 0.02826,-0.116644 -0.03061,-0.167035 -0.349418,-0.299175 -0.210864,-0.0874 -0.666076,-0.329325 -1.011581,-0.537615 -0.5999243,-0.361667 -0.6326539,-0.372924 -0.7273593,-0.25019 -0.2194908,0.284453 -0.842083,1.676844 -1.008915,2.256383 -0.1811242,0.629184 -0.3786978,1.638197 -0.3786978,1.934011 v 0.163996 l 1.52654,-0.01849 1.5265431,-0.01849 z M 16.808351,61.37728 V 60.209879 H 16.51445 c -0.494032,0 -1.946635,-0.200382 -2.788555,-0.384673 -0.438587,-0.096 -0.842516,-0.18006 -0.897612,-0.186791 -0.131281,-0.01604 -0.330123,1.068876 -0.391057,2.133721 l -0.04421,0.772545 h 2.207665 2.207665 z m 5.783254,0.491532 c -0.01573,-0.519559 -0.24412,-2.18834 -0.307722,-2.248407 -0.0088,-0.0085 -0.247979,0.04213 -0.531246,0.11234 -0.805791,0.199738 -1.67212,0.33843 -2.660986,0.425999 l -0.909888,0.08057 v 1.106892 c 0,0.608793 0.02104,1.127923 0.04672,1.153624 0.0257,0.02569 1.022284,0.03857 2.21463,0.02861 l 2.167901,-0.01811 z m 4.460045,0.332516 c -0.0306,-0.464568 -0.256877,-1.502626 -0.458459,-2.103127 -0.198919,-0.59257 -0.904127,-2.017111 -0.998556,-2.017111 -0.03326,0 -0.254657,0.125994 -0.491985,0.279966 -0.237333,0.153985 -0.673392,0.393346 -0.969023,0.531918 -0.519737,0.243616 -0.536326,0.25877 -0.501618,0.458242 0.08641,0.496581 0.324926,2.307314 0.359768,2.731237 l 0.03819,0.464825 1.52101,-0.01847 1.521009,-0.01846 z m -10.243299,-5.93973 v -2.574871 l -0.341645,0.129817 c -0.445212,0.169167 -1.147491,0.673498 -1.513171,1.086661 -0.643864,0.727466 -1.307796,1.873458 -1.670839,2.883985 l -0.178129,0.495812 0.255301,0.06824 c 1.047538,0.279968 2.211011,0.466343 2.984956,0.478158 l 0.463527,0.007 z m 3.578166,2.372421 c 1.077108,-0.200012 1.446195,-0.296726 1.481277,-0.38815 0.07646,-0.199269 -0.696204,-1.843985 -1.229933,-2.618057 -0.59584,-0.864149 -1.594172,-1.690089 -2.301588,-1.904146 l -0.154509,-0.04675 v 2.590102 2.5901 l 0.745503,-0.04528 c 0.410025,-0.0249 1.066686,-0.104928 1.45925,-0.177819 z m -8.39222,-1.283055 c 0.23272,-0.648895 0.827871,-1.834322 1.193496,-2.377222 0.171695,-0.254939 0.29174,-0.463137 0.266766,-0.462661 -0.02497,4.81e-4 -0.283954,0.131816 -0.575512,0.291851 -0.74874,0.410995 -1.514097,0.990249 -2.113712,1.599748 l -0.515029,0.52352 0.191551,0.148252 c 0.234915,0.181816 1.224351,0.729895 1.319815,0.731087 0.03811,4.84e-4 0.142788,-0.204082 0.232625,-0.454575 z m 11.876223,0.145732 c 0.327035,-0.170342 0.669027,-0.3673 0.759985,-0.437684 l 0.165373,-0.127971 -0.336782,-0.36005 c -0.597598,-0.638881 -1.766072,-1.51375 -2.568544,-1.92314 -0.158709,-0.08096 -0.300118,-0.135659 -0.314241,-0.121533 -0.01413,0.01412 0.118438,0.240317 0.294572,0.502653 0.368112,0.548257 0.876025,1.556519 1.148343,2.27958 0.10312,0.273825 0.20307,0.497862 0.222094,0.497862 0.01904,0 0.302166,-0.139376 0.6292,-0.309709 z"
       id="path5" /></g><g
     inkscape:groupmode="layer"
     inkscape:label="Image"
     id="g1"
     style="display:inline"
     transform="translate(1.3206986,-25.155065)"><path
       d="m 45.891236,77.528084 h -11.97 v -21.42 h 11.97 v 2.37 h -9.27 v 6.69 h 8.73 v 2.34 h -8.73 v 7.65 h 9.27 z m 12.089993,-16.38 c 1.92,0 3.37,0.47 4.35,1.41 0.98,0.92 1.47,2.42 1.47,4.5 v 10.47 h -2.61 v -10.29 c 0,-2.58 -1.2,-3.87 -3.6,-3.87 -1.78,0 -3.01,0.5 -3.69,1.5 -0.68,1 -1.02,2.44 -1.02,4.32 v 8.34 h -2.64 v -16.08 h 2.13 l 0.39,2.19 h 0.15 c 0.52,-0.84 1.24,-1.46 2.16,-1.86 0.92,-0.42 1.89,-0.63 2.91,-0.63 z"
       id="text3"
       style="font-size:30px;fill:#ffa500"
       aria-label="English"
       sodipodi:nodetypes="cccccccccccccscsccsssscccccccs" /><path
       style="font-size:95px;font-family:'Old English Text MT';-inkscape-font-specification:'Old English Text MT';white-space:pre;fill:#ffffff;stroke-width:1.09172"
       d="m 152.07178,25.155066 0.88134,2.543178 q -3.33984,1.935027 -4.96337,3.870054 -1.57715,1.879741 -2.22657,4.25706 -0.64941,2.322032 -0.64941,6.966096 0,1.492736 0.0464,3.980627 l 0.78857,41.299004 q 0.0928,6.800237 1.20606,8.901124 0.78857,1.492735 1.90185,1.492735 1.34522,0 4.17481,-3.206617 l 1.34521,2.045601 -8.62793,8.790552 -2.87598,2.81961 q -3.66455,-2.0456 -5.2417,-5.41808 -1.53076,-3.37247 -1.7163,-10.780861 L 118.1631,108.91409 Q 103.18019,97.138069 97.752944,97.138069 q -1.34522,0 -2.27295,0.995156 -0.6958,0.718724 -0.6958,2.045595 0,1.43745 0.88135,3.15133 1.15967,2.32204 1.15967,3.04076 0,1.05044 -0.64942,1.82445 -0.64941,0.71873 -1.57715,0.71873 -1.15967,0 -1.85547,-1.10573 -1.0205,-1.49274 -1.0205,-3.87005 0,-2.65376 1.25244,-5.915658 1.29883,-3.317189 3.80371,-7.187243 0.51025,-0.829297 0.92773,-1.548021 l 6.633296,-10.780865 q -6.726066,-6.026227 -9.462886,-11.554875 -2.69043,-5.528649 -2.69043,-12.384173 0,-7.961253 3.38623,-14.761491 3.43262,-6.800237 10.251466,-10.725577 6.86523,-3.925341 14.10156,-3.925341 11.08643,0 21.38428,9.177556 2.50488,-3.151329 4.82422,-5.141643 2.31933,-2.045599 5.9375,-4.035913 z m -22.82227,12.826465 q -5.84472,-3.427763 -11.64306,-3.427763 -6.16944,0 -11.59668,3.261902 -5.42725,3.206617 -8.117676,8.34826 -2.69043,5.086356 -2.69043,10.449146 0,11.333728 10.297846,20.068993 l 15.49317,-25.265923 q -3.47901,-2.266746 -6.26221,-2.266746 -3.8501,0 -6.3086,4.312346 -0.46386,0.884583 -0.92773,0.884583 -0.27832,0 -0.55664,-0.331718 -0.23193,-0.331719 -0.23193,-0.829298 0,-1.713881 1.43798,-4.754638 1.48438,-3.040756 4.31397,-4.920496 2.87598,-1.879741 6.03027,-1.879741 3.24707,0 7.37549,1.879741 z m 5.98389,5.694508 q -1.34522,-1.769168 -1.80908,-2.266747 -0.32471,-0.387005 -2.31934,-2.045599 l -20.271,32.950744 h 24.95606 z m -29.40918,36.710225 -4.17481,6.91081 23.56446,12.10774 10.94726,-9.619848 -0.18554,-9.398702 z m 97.22656,-55.231198 1.71631,1.271589 q -3.8501,7.85068 -5.47363,13.876908 -1.62354,6.026226 -2.13379,14.098053 l 17.76611,-16.807091 10.80811,14.982637 -18.46192,15.701362 q 4.26758,2.709038 7.42188,6.74495 3.20068,3.980628 7.42187,12.494746 4.22119,8.514118 5.14893,9.730421 0.92773,1.161016 1.80908,1.161016 0.88135,0 2.69043,-2.156173 l 2.41211,-2.709037 1.43799,2.0456 -11.5503,13.324043 q -2.4121,-1.99031 -3.80371,-4.0912 -1.3916,-2.15617 -6.07666,-12.163028 l -11.96777,16.254228 q -5.56641,-2.93018 -10.06592,-4.20177 -4.49951,-1.27159 -9.23095,-1.27159 -4.63868,0 -9.0918,1.27159 -4.45313,1.2163 -10.25147,4.20177 l -1.48437,-2.54318 q 9.0918,-8.62469 13.03467,-15.314355 1.94824,-3.317189 1.94824,-6.413233 0,-2.930183 -1.62354,-4.86521 -1.62353,-1.935027 -3.85009,-1.935027 -2.04102,0 -3.61817,2.432605 l -1.62353,-0.884583 q 0.83496,-3.261902 2.7832,-5.03107 1.99463,-1.824454 4.49951,-1.824454 1.62354,0 3.38623,0.774011 1.7627,0.77401 3.66455,2.377319 0.0928,-1.769168 0.0928,-3.096043 0,-5.915654 -2.87598,-9.564563 -2.87598,-3.648907 -6.91162,-3.648907 -2.31934,0 -4.63867,2.432604 l -1.53077,-0.718723 q 1.11329,-3.538335 3.29346,-5.307503 2.18018,-1.824454 5.05615,-1.824454 1.53077,0 3.29346,0.774011 1.80908,0.718725 3.80371,2.211459 -0.0928,-2.322032 -0.0928,-4.035913 0,-5.141643 1.76269,-9.066983 1.7627,-3.92534 10.06592,-14.263914 -4.91699,3.372476 -7.79297,4.533492 -2.82959,1.105731 -5.61279,1.105731 -1.48437,0 -3.8501,-0.497579 -2.36572,-0.497578 -3.38623,-0.497578 -3.38623,0 -5.75195,2.100886 -2.31934,2.0456 -4.45313,6.91081 l -1.53076,-0.442292 q 0.97412,-5.583934 2.36573,-8.348258 2.18017,-4.422919 5.42724,-6.855524 3.29346,-2.432606 6.6333,-2.432606 2.59766,0 6.44776,1.437449 3.85009,1.437448 6.30859,1.437448 4.03564,0 8.67432,-2.874897 l 1.66992,1.271589 q -3.80371,6.634379 -5.75196,15.203783 -1.90185,8.514119 -1.90185,16.530659 l 0.18555,15.756648 q 0,3.538335 -0.92774,6.523805 -0.92773,2.930184 -2.69043,5.307503 -1.71631,2.322032 -2.13379,2.764324 l -13.63769,13.600473 q 3.57178,-2.266744 7.65381,-4.36763 7.42187,-3.759481 10.57617,-6.523805 3.20068,-2.764325 4.91699,-7.021383 1.71631,-4.312347 1.71631,-10.891438 L 194.9331,56.115497 q 0,-6.247373 1.80908,-14.208626 1.85547,-8.016541 6.30859,-16.751805 z m 5.89111,21.285297 -11.78222,11.278442 V 59.3774 l 0.0928,8.790551 -0.0928,5.362789 19.48242,-16.420087 z m 4.2212,44.063327 q -4.31397,-8.237686 -7.97852,-11.278442 -3.66455,-3.096043 -8.0249,-3.317189 -0.13916,6.247372 -2.0874,10.393859 -1.90186,4.146486 -6.44776,7.961253 7.14356,0.442292 10.52979,1.437449 3.38623,0.995156 7.51465,3.538335 z"
       id="text4"
       aria-label="AK" /></g></svg>
