<?xml version="1.0" encoding="UTF-8" standalone="no"?>
<!-- Created with Inkscape (http://www.inkscape.org/) -->

<svg
   width="46.937714mm"
   height="22.489584mm"
   viewBox="0 0 46.937714 22.489584"
   version="1.1"
   id="svg1"
   xmlns:inkscape="http://www.inkscape.org/namespaces/inkscape"
   xmlns:sodipodi="http://sodipodi.sourceforge.net/DTD/sodipodi-0.dtd"
   xmlns="http://www.w3.org/2000/svg"
   xmlns:svg="http://www.w3.org/2000/svg">
  <sodipodi:namedview
     id="namedview1"
     pagecolor="#ffffff"
     bordercolor="#000000"
     borderopacity="0.25"
     inkscape:showpageshadow="2"
     inkscape:pageopacity="0.0"
     inkscape:pagecheckerboard="0"
     inkscape:deskcolor="#d1d1d1"
     inkscape:document-units="mm" />
  <defs
     id="defs1" />
  <g
     inkscape:label="Layer 1"
     inkscape:groupmode="layer"
     id="layer1"
     transform="translate(-26.506463,-69.095007)">
    <rect
       style="fill:#000000;stroke-width:0.064844"
       id="rect1"
       width="46.93771"
       height="8.2954473"
       x="26.506464"
       y="77.119347"
       ry="1.9106529"
       inkscape:export-filename="logo.en.svg"
       inkscape:export-xdpi="96"
       inkscape:export-ydpi="96" />
    <rect
       style="fill:#000000;stroke-width:0.0828513"
       id="rect2"
       width="28.264404"
       height="22.489584"
       x="45.179768"
       y="69.095009"
       ry="2.0463903" />
    <path
       style="fill:#ffa500;fill-opacity:1;stroke-width:0.0561464"
       d="m 26.800201,81.398218 v -3.061241 h 3.212504 3.212505 v 3.061241 3.06124 h -3.212505 -3.212504 z m 6.410604,0 V 78.35138 h -3.1981 -3.198097 v 3.046838 3.046837 h 3.198097 3.1981 z m -5.286019,2.949147 c -0.06007,-0.0601 -0.05738,-0.112188 0.01316,-0.254719 0.05942,-0.120054 0.130297,-0.31285 0.129542,-0.352399 -2.35e-4,-0.01252 -0.03864,-0.04454 -0.08536,-0.07135 -0.10275,-0.05887 -0.155518,-0.111753 -0.22216,-0.222839 -0.08967,-0.149465 -0.09544,-0.204734 -0.0952,-0.912666 2.36e-4,-0.696643 0.0049,-0.742514 0.08899,-0.900542 0.08067,-0.15136 0.249522,-0.274968 0.426512,-0.31224 0.04198,-0.0093 0.141277,-0.01608 0.22066,-0.01608 0.130874,0 0.143572,-0.0021 0.136364,-0.02525 -0.0043,-0.0138 -0.02228,-0.09002 -0.0398,-0.169267 -0.0272,-0.123024 -0.03188,-0.188236 -0.03216,-0.446584 -2.72e-4,-0.25843 0.0043,-0.323509 0.03121,-0.446575 0.104556,-0.477969 0.299545,-0.837802 0.636608,-1.17487 0.33832,-0.338314 0.718177,-0.542017 1.185988,-0.635997 0.235998,-0.04743 0.641528,-0.04711 0.867633,5.15e-4 0.625424,0.13195 1.135981,0.473371 1.479155,0.989191 0.449789,0.676074 0.505012,1.543126 0.145242,2.280443 -0.341132,0.699119 -1.046574,1.192214 -1.814194,1.268088 l -0.09831,0.0093 -0.0089,0.158456 c -0.01477,0.264236 -0.100662,0.424417 -0.293696,0.547421 -0.15746,0.100327 -0.14839,0.09918 -0.852349,0.104707 l -0.636263,0.0052 -0.08403,0.101452 c -0.232873,0.281165 -0.606239,0.481992 -0.951054,0.511551 -0.101365,0.0082 -0.104437,0.0082 -0.147668,-0.03526 z m 0.553006,-0.384322 c 0.148792,-0.08382 0.320326,-0.24616 0.42179,-0.39926 0.01929,-0.02907 0.0459,-0.05826 0.0591,-0.06486 0.01316,-0.0063 0.331936,-0.01509 0.70829,-0.01907 0.672004,-0.0072 0.685349,-0.0082 0.743955,-0.03908 0.07461,-0.0399 0.159226,-0.137296 0.177995,-0.204847 0.0085,-0.03052 0.01412,-0.3199 0.01396,-0.714026 -2.24e-4,-0.611706 -0.0023,-0.667144 -0.02666,-0.720853 -0.0333,-0.0733 -0.141085,-0.169222 -0.215057,-0.19138 -0.04107,-0.0122 -0.340516,-0.0169 -1.094051,-0.0169 h -1.037511 l -0.07701,0.04021 c -0.08607,0.04495 -0.16212,0.133716 -0.184925,0.215839 -0.02013,0.07249 -0.02013,1.302514 0,1.375026 0.03305,0.119026 0.143637,0.214209 0.301216,0.259306 0.04756,0.01365 0.0714,0.03083 0.09205,0.0664 0.02685,0.04618 0.02702,0.05237 0.0045,0.167378 -0.01284,0.06567 -0.0397,0.167225 -0.05954,0.225706 -0.01985,0.05846 -0.03613,0.10766 -0.03619,0.109297 -3.26e-4,0.01027 0.134968,-0.04763 0.208093,-0.08878 z m 0.05662,-0.966982 c -0.08655,-0.04269 -0.104275,-0.154361 -0.03543,-0.22319 l 0.04211,-0.04206 h 0.698686 0.698686 l 0.0426,0.03588 c 0.08071,0.06794 0.06353,0.191166 -0.03222,0.231169 -0.07695,0.03218 -1.348924,0.03062 -1.414441,-0.0021 z m 0.01445,-0.711592 c -0.09376,-0.03784 -0.120359,-0.161451 -0.04991,-0.231891 l 0.04211,-0.04206 h 0.698686 0.698686 l 0.0426,0.03588 c 0.05155,0.04341 0.0646,0.09918 0.03803,0.162741 -0.03702,0.08857 -0.04604,0.0896 -0.780263,0.08857 -0.362741,-6.09e-4 -0.673221,-0.0063 -0.689954,-0.01316 z m 2.569095,0.264628 c 0.282975,-0.194899 0.523618,-0.629689 0.637152,-1.151198 0.0306,-0.140572 0.07269,-0.45503 0.07269,-0.543071 v -0.05444 h -0.46819 -0.46819 v 0.929111 0.929123 l 0.07531,-0.02866 c 0.04143,-0.01574 0.109474,-0.05218 0.151232,-0.08093 z m 0.756014,-0.217942 c 0.278336,-0.188 0.521706,-0.463866 0.670518,-0.760064 0.106005,-0.21099 0.195355,-0.5116 0.207676,-0.698684 l 0.0042,-0.06484 -0.31908,-0.0042 -0.319079,-0.0042 -0.0082,0.09753 c -0.04275,0.504159 -0.129414,0.85728 -0.296119,1.206771 -0.04535,0.09506 -0.112638,0.217477 -0.149514,0.272009 -0.03688,0.05453 -0.06706,0.101657 -0.06706,0.104621 0,0.01071 0.196228,-0.09526 0.276661,-0.149594 z M 30.603308,81.102897 V 80.80038 h -0.465474 -0.465508 l 0.005,0.09002 c 0.0049,0.08867 0.02648,0.275865 0.04237,0.367349 l 0.0082,0.04681 h 0.284547 c 0.310809,0 0.39918,0.01108 0.510365,0.06372 0.0404,0.01919 0.07505,0.03526 0.07704,0.03597 0.0019,6.59e-4 0.0036,-0.134937 0.0036,-0.301323 z m -1.175296,0.133747 c -0.0056,-0.03732 -0.01743,-0.149176 -0.02629,-0.2485 l -0.0161,-0.180567 -0.320334,-0.0042 -0.320334,-0.0042 4.7e-5,0.03269 c 1.11e-4,0.07857 0.07083,0.417674 0.09622,0.461257 0.0036,0.0063 0.13919,0.01071 0.301641,0.01071 h 0.295351 z m -0.02439,-0.918861 c 0.01557,-0.172989 0.04471,-0.369464 0.07053,-0.476011 0.0059,-0.02443 -0.0064,-0.03507 -0.07329,-0.06279 -0.04423,-0.01835 -0.139736,-0.06908 -0.212212,-0.112781 -0.12585,-0.07589 -0.132721,-0.07825 -0.15258,-0.05248 -0.04604,0.05969 -0.176653,0.351769 -0.211653,0.47335 -0.038,0.131998 -0.07943,0.343666 -0.07943,0.405715 v 0.03444 l 0.32024,-0.0042 0.320242,-0.0042 z m 1.199679,-0.03597 V 80.03691 h -0.06166 c -0.103626,0 -0.408367,-0.04206 -0.584987,-0.08074 -0.09201,-0.0201 -0.176746,-0.03775 -0.188304,-0.03918 -0.02754,-0.003 -0.06925,0.224229 -0.08204,0.447615 l -0.0093,0.162069 h 0.463129 0.463129 z m 1.21322,0.103118 c -0.0034,-0.108993 -0.05121,-0.459071 -0.06456,-0.471671 -0.0019,-0.0021 -0.05201,0.0093 -0.111447,0.02361 -0.169041,0.04187 -0.350781,0.07104 -0.558228,0.08939 l -0.190878,0.01691 v 0.232212 c 0,0.127713 0.0045,0.236613 0.0098,0.242006 0.0053,0.0052 0.214457,0.0082 0.464589,0.0063 l 0.454786,-0.0042 z m 0.935637,0.06981 c -0.0064,-0.09744 -0.0539,-0.315231 -0.09618,-0.441202 -0.04173,-0.124308 -0.189669,-0.42315 -0.209478,-0.42315 -0.007,0 -0.05341,0.02639 -0.103215,0.05877 -0.04978,0.03227 -0.141261,0.08249 -0.203282,0.111593 -0.109024,0.05114 -0.112509,0.05423 -0.105237,0.0961 0.01813,0.104178 0.06816,0.484031 0.07547,0.572969 l 0.008,0.09755 0.319082,-0.0042 0.319078,-0.0042 z m -2.148857,-1.246053 v -0.540162 l -0.07167,0.02721 c -0.0934,0.03547 -0.240723,0.141278 -0.317436,0.227953 -0.135064,0.152611 -0.274352,0.393023 -0.350511,0.605015 l -0.03736,0.104015 0.05356,0.01429 c 0.219753,0.05877 0.46383,0.09785 0.626188,0.100326 l 0.09724,10e-4 z m 0.750633,0.497694 c 0.225957,-0.04197 0.303384,-0.06228 0.310745,-0.08144 0.01605,-0.04176 -0.146046,-0.386826 -0.258017,-0.549215 C 31.281663,78.89444 31.072234,78.721172 30.92383,78.67627 l -0.03242,-0.01028 v 0.543349 0.543358 l 0.156385,-0.0093 c 0.08602,-0.0052 0.22377,-0.02206 0.306123,-0.03732 z m -1.760535,-0.269163 c 0.04882,-0.136124 0.173673,-0.384806 0.250374,-0.498695 0.03601,-0.05351 0.0612,-0.09713 0.05596,-0.09702 -0.0053,1.03e-4 -0.05956,0.02763 -0.120728,0.06125 -0.157075,0.08619 -0.31763,0.207734 -0.443417,0.335604 l -0.10805,0.109828 0.04018,0.03115 c 0.04929,0.03815 0.256846,0.153125 0.276873,0.153366 0.008,1.03e-4 0.02996,-0.04279 0.0488,-0.09537 z m 2.491415,0.03062 c 0.0686,-0.03579 0.140346,-0.07701 0.159435,-0.09177 l 0.0347,-0.02681 -0.07064,-0.07558 c -0.125367,-0.134022 -0.37049,-0.31755 -0.538834,-0.403435 -0.0333,-0.01701 -0.06295,-0.02845 -0.06592,-0.02546 -0.003,0.003 0.02486,0.05041 0.06181,0.105443 0.07722,0.115029 0.183775,0.326531 0.240901,0.478217 0.02162,0.05742 0.0426,0.104448 0.0466,0.104448 0.004,0 0.06338,-0.02928 0.131998,-0.06496 z"
       id="path5" />
    <path
       d="M 37.495097,84.229671 H 34.22973 v -5.843286 h 3.265367 v 0.646523 h -2.528819 v 1.825003 h 2.381509 v 0.638348 h -2.381509 v 2.086887 h 2.528819 z M 40.7932,79.761276 c 0.523769,0 0.919322,0.128209 1.186663,0.384641 0.267339,0.250974 0.40101,0.660163 0.40101,1.227587 v 2.856167 h -0.711997 v -2.80707 c 0,-0.703807 -0.327356,-1.055724 -0.982066,-1.055724 -0.485577,0 -0.821116,0.136414 -1.006618,0.409201 -0.185502,0.272793 -0.278253,0.665618 -0.278253,1.178479 v 2.275114 H 38.681758 V 79.84311 h 0.581056 l 0.106395,0.597426 h 0.04092 c 0.141856,-0.229148 0.338269,-0.39828 0.58924,-0.507396 0.250973,-0.114579 0.515584,-0.171864 0.793836,-0.171864 z"
       id="text3"
       style="font-size:30px;display:inline;fill:#ffa500;stroke-width:0.272796"
       aria-label="English"
       sodipodi:nodetypes="cccccccccccccscsccsssscccccccs" />
    <path
       style="font-size:95px;font-family:'Old English Text MT';-inkscape-font-specification:'Old English Text MT';white-space:pre;display:inline;fill:#ffffff;stroke-width:0.185507"
       d="m 57.434088,73.401857 0.14976,0.432145 q -0.567513,0.328798 -0.843386,0.657603 -0.267992,0.31941 -0.378339,0.723367 -0.110347,0.394563 -0.110347,1.183687 0,0.253645 0.0079,0.676395 l 0.133993,7.017575 q 0.0158,1.155505 0.204939,1.512491 0.133994,0.253652 0.323167,0.253652 0.228579,0 0.709385,-0.544874 l 0.22858,0.34759 -1.466071,1.4937 -0.488686,0.47911 q -0.622686,-0.34759 -0.890679,-0.920645 -0.260106,-0.573054 -0.291633,-1.831894 l -3.05037,2.752539 q -2.545916,-2.000991 -3.468122,-2.000991 -0.228581,0 -0.386223,0.169097 -0.118231,0.122125 -0.118231,0.34759 0,0.24425 0.149761,0.535479 0.197052,0.394562 0.197052,0.516687 0,0.178493 -0.11035,0.310013 -0.110349,0.122125 -0.267991,0.122125 -0.197053,0 -0.315285,-0.187882 -0.173404,-0.253652 -0.173404,-0.657603 0,-0.45093 0.212816,-1.0052 0.220699,-0.563659 0.646331,-1.221263 0.0867,-0.140916 0.157642,-0.263041 l 1.127141,-1.831901 q -1.142905,-1.023984 -1.607949,-1.963421 -0.457161,-0.939436 -0.457161,-2.104331 0,-1.35279 0.575392,-2.508295 0.583272,-1.155506 1.741944,-1.822505 1.166545,-0.666999 2.396151,-0.666999 1.883824,0 3.633648,1.559463 0.425633,-0.535478 0.819733,-0.873672 0.394106,-0.34759 1.008911,-0.685791 z m -3.877988,2.17949 q -0.993146,-0.58245 -1.978404,-0.58245 -1.048319,0 -1.970524,0.55427 -0.922206,0.544874 -1.379367,1.418547 -0.457162,0.864277 -0.457162,1.775532 0,1.925838 1.749822,3.410149 l 2.632617,-4.293217 q -0.591153,-0.385173 -1.064079,-0.385173 -0.654212,0 -1.071965,0.732763 -0.07882,0.150312 -0.15764,0.150312 -0.04727,0 -0.09459,-0.05639 -0.03943,-0.05639 -0.03943,-0.140917 0,-0.291222 0.24434,-0.807915 0.252226,-0.516687 0.733039,-0.836097 0.488686,-0.319409 1.024665,-0.319409 0.551746,0 1.253252,0.319409 z m 1.016785,0.967617 q -0.228579,-0.300617 -0.307399,-0.385166 -0.05517,-0.06576 -0.394106,-0.34759 l -3.444476,5.599035 h 4.240568 z m -4.99724,6.237854 -0.709392,1.17429 4.004101,2.057366 1.860178,-1.634617 -0.03153,-1.597039 z m 16.520859,-9.384961 0.291639,0.216076 q -0.654212,1.333992 -0.930085,2.357976 -0.275873,1.023985 -0.36258,2.39556 l 3.018843,-2.855879 1.836525,2.545866 -3.13707,2.667996 q 0.725153,0.460326 1.261132,1.14611 0.543866,0.676395 1.261132,2.123123 0.717272,1.446734 0.874918,1.653407 0.15764,0.197284 0.3074,0.197284 0.14976,0 0.45716,-0.366381 l 0.409872,-0.460326 0.244347,0.347597 -1.962644,2.264032 Q 69.257226,87.296104 69.02076,86.939118 68.7843,86.572743 67.988208,84.872364 l -2.033577,2.761934 q -0.945853,-0.497895 -1.710418,-0.713965 -0.764559,-0.216069 -1.568532,-0.216069 -0.788212,0 -1.544891,0.216069 -0.756685,0.206674 -1.741944,0.713965 L 59.136619,87.20216 q 1.544892,-1.465519 2.214864,-2.602233 0.331047,-0.56366 0.331047,-1.089749 0,-0.497895 -0.275873,-0.8267 -0.275867,-0.328799 -0.654213,-0.328799 -0.346813,0 -0.614799,0.413347 l -0.275873,-0.150305 q 0.141879,-0.55427 0.472926,-0.854888 0.338926,-0.310014 0.764559,-0.310014 0.275873,0 0.575393,0.131521 0.299519,0.131521 0.622685,0.403958 0.0158,-0.300618 0.0158,-0.526083 0,-1.0052 -0.488693,-1.625227 -0.488692,-0.620027 -1.174431,-0.620027 -0.394106,0 -0.788213,0.413354 L 59.601691,79.50819 q 0.189173,-0.601242 0.559626,-0.90186 0.37046,-0.310014 0.859152,-0.310014 0.260107,0 0.559626,0.131521 0.3074,0.122125 0.646333,0.375777 -0.01573,-0.394562 -0.01573,-0.685791 0,-0.873672 0.299513,-1.540672 0.299526,-0.666999 1.710418,-2.423746 -0.835499,0.573061 -1.324192,0.770339 -0.480806,0.187888 -0.953732,0.187888 -0.252226,0 -0.654212,-0.08455 -0.401986,-0.08455 -0.575393,-0.08455 -0.575392,0 -0.977379,0.356986 -0.394106,0.34759 -0.756685,1.174291 l -0.260107,-0.07515 q 0.16552,-0.948832 0.401987,-1.418547 0.370459,-0.751548 0.922205,-1.164901 0.559626,-0.413354 1.127139,-0.413354 0.441399,0 1.095612,0.244256 0.654212,0.24425 1.071965,0.24425 0.685739,0 1.473951,-0.488506 l 0.283753,0.216076 q -0.646332,1.127318 -0.977379,2.583441 -0.323166,1.446734 -0.323166,2.808914 l 0.03153,2.677392 q 0,0.601236 -0.15764,1.108533 -0.157639,0.497896 -0.457159,0.901854 -0.29164,0.394562 -0.362579,0.469721 l -2.317337,2.311011 q 0.606925,-0.385173 1.300545,-0.742158 1.261138,-0.638812 1.797117,-1.108534 0.543866,-0.469715 0.835499,-1.193082 0.29164,-0.732756 0.29164,-1.850685 l -0.03943,-2.921642 q 0,-1.061562 0.3074,-2.414351 0.315286,-1.36218 1.071965,-2.84649 z m 1.001025,3.616829 -2.002051,1.916449 v 0.281826 l 0.0158,1.493706 -0.0158,0.911249 3.310483,-2.790121 z m 0.717273,7.487296 q -0.733033,-1.399755 -1.355719,-1.916449 -0.622686,-0.526082 -1.363605,-0.563659 -0.02363,1.061561 -0.354692,1.766137 -0.323167,0.704576 -1.095612,1.35279 1.213845,0.07515 1.789237,0.24425 0.575393,0.169097 1.276899,0.601242 z"
       id="text4"
       aria-label="AK" />
  </g>
</svg>
